<svg width="500" height="400" viewBox="0 0 500 400" fill="none" xmlns="http://www.w3.org/2000/svg">
<path d="M213.442 101.337C216.854 102.731 219.893 104.186 222.559 105.703C223.75 106.381 225.137 108.442 223.574 109.453C223.047 109.791 222.493 110.058 221.914 110.253C220.534 110.712 219.119 111.171 217.671 111.63C212.404 113.3 207.627 114.858 203.34 116.303C202.407 116.62 201.46 116.669 200.552 117.016C200.392 117.075 200.231 117.078 200.068 117.026C199.359 116.801 198.794 116.454 198.374 115.986C198.254 115.852 198.203 115.696 198.223 115.517C198.353 114.433 198.558 113.439 198.838 112.534C199.948 108.946 201.598 105.151 203.789 101.147C204.78 99.3256 206.03 97.7484 208.35 98.9301C210.544 100.043 212.241 100.846 213.442 101.337ZM202.905 112.031C202.888 112.067 202.883 112.108 202.89 112.148C202.896 112.188 202.915 112.224 202.943 112.253C202.971 112.282 203.007 112.302 203.046 112.31C203.086 112.319 203.127 112.315 203.164 112.299C207.575 110.561 212.197 109.042 217.031 107.744C217.533 107.61 217.547 107.434 217.075 107.216C214.819 106.181 212.419 105.107 209.873 103.994C209.053 103.635 208.31 103.17 207.646 102.597C207.48 102.457 207.352 102.485 207.261 102.68L202.905 112.031Z" fill="#09090B"/>
<path d="M264.775 102.324C269.479 102.073 274.12 102.039 278.696 102.221C279.624 102.257 280.663 102.374 281.812 102.573C282.414 102.677 282.832 102.958 283.066 103.417C283.122 103.528 283.152 103.65 283.152 103.774C283.153 103.897 283.125 104.02 283.07 104.131C283.015 104.242 282.934 104.338 282.836 104.413C282.737 104.487 282.622 104.538 282.5 104.56C281.96 104.661 281.423 104.708 280.889 104.702C274.076 104.61 269.561 104.627 267.344 104.75C263.486 104.962 259.333 105.167 254.883 105.366C253.184 105.444 253.569 103.71 254.756 103.412C258.12 102.578 261.304 102.504 264.775 102.324Z" fill="#09090B"/>
<path d="M315.859 113.163C315.039 113.012 314.39 112.529 313.569 112.338C310.549 111.625 307.761 110.865 305.205 110.058C305.098 110.026 304.996 109.978 304.902 109.916C303.825 109.22 303.719 108.605 304.585 108.071C304.746 107.973 304.934 107.935 305.117 107.963C313.154 109.125 320.614 111.124 327.495 113.959C328.618 114.418 331.992 115.556 330.85 117.285C330.703 117.509 330.483 117.676 330.228 117.759C329.972 117.841 329.695 117.834 329.443 117.739C325.586 116.271 321.561 114.871 317.368 113.539C316.877 113.383 316.374 113.258 315.859 113.163Z" fill="#09090B"/>
<path d="M151.016 138.315C151.113 137.763 151.035 137.289 151.118 136.752C152.14 130.265 152.913 126.188 153.437 124.521C153.892 123.09 153.682 121.293 155.561 120.776C157.28 120.302 159.131 120.37 160.937 120.551C161.361 120.593 161.798 120.566 162.251 120.468C162.837 120.346 163.384 120.712 164.033 120.732C167.91 120.856 171.672 121.314 175.317 122.109C175.578 122.165 175.818 122.291 176.012 122.475C176.205 122.658 176.345 122.891 176.416 123.149C176.54 123.601 176.73 124.018 176.987 124.399C177.088 124.545 177.108 124.702 177.046 124.868C176.704 125.795 176.263 126.487 175.723 126.943C173.203 129.075 170.545 131.163 167.749 133.207C163.839 136.062 159.606 139.226 155.049 142.7C154.313 143.263 153.496 143.73 152.598 144.101C152.435 144.167 152.253 144.169 152.09 144.106C151.255 143.793 150.61 143.251 150.644 142.26C150.697 140.737 150.82 139.422 151.016 138.315ZM162.754 124.736C161.071 124.488 159.307 124.426 157.461 124.55C157.272 124.563 157.161 124.662 157.129 124.848L154.932 137.162C154.792 137.953 155.003 138.063 155.566 137.49C155.996 137.053 156.449 136.656 156.924 136.298C161.084 133.144 165.309 130.016 169.6 126.913C170.081 126.565 170.573 126.223 171.074 125.888C171.514 125.595 171.47 125.424 170.942 125.375C168.849 125.18 166.626 124.911 164.272 124.57C163.711 124.492 163.34 124.824 162.754 124.736Z" fill="#09090B"/>
<path d="M370.61 125.605C370.767 127.259 370.78 129.068 370.649 131.035C370.36 135.296 369.959 139.046 369.448 142.285C369.315 143.121 368.983 143.896 368.452 144.609C368.351 144.745 368.216 144.824 368.047 144.843C366.755 144.983 365.866 144.838 365.381 144.409C362.939 142.255 360.391 140.244 358.159 137.963C357.095 136.879 355.918 136.005 354.858 134.887C353.947 133.924 353.021 132.978 352.08 132.05C351.46 131.445 351.148 130.81 350.713 130.082C350.449 129.64 350.37 129.184 350.474 128.715C350.884 126.923 352.632 126.396 354.194 126.078C356.475 125.615 358.657 124.75 360.898 124.208C362.096 123.919 363.291 123.585 364.482 123.207C365.708 122.817 366.856 122.792 368.052 122.48C369.458 122.114 370.513 123.32 370.552 124.614C370.558 124.952 370.578 125.283 370.61 125.605ZM355.483 129.721C355.454 129.728 355.428 129.743 355.406 129.764C355.385 129.785 355.37 129.812 355.362 129.841C355.355 129.87 355.355 129.9 355.364 129.929C355.372 129.958 355.388 129.984 355.41 130.004L365.84 139.662C365.863 139.684 365.892 139.698 365.923 139.704C365.954 139.709 365.985 139.706 366.015 139.694C366.044 139.683 366.069 139.663 366.087 139.637C366.106 139.612 366.116 139.582 366.118 139.55L366.826 126.977C366.828 126.951 366.823 126.925 366.813 126.901C366.802 126.877 366.787 126.856 366.767 126.84C366.747 126.823 366.723 126.811 366.698 126.806C366.673 126.8 366.646 126.8 366.621 126.806L355.483 129.721Z" fill="#09090B"/>
<path d="M116.47 218.427L105.005 225.048C104.919 225.098 104.818 225.113 104.721 225.091C104.624 225.07 104.539 225.013 104.482 224.931C104.355 224.742 104.329 224.563 104.404 224.394C104.675 223.782 105.073 223.299 105.601 222.944C107.189 221.873 108.721 220.875 110.195 219.951C110.358 219.846 110.449 219.698 110.469 219.506L111.108 212.558C111.125 212.398 111.056 212.343 110.903 212.392C107.559 213.452 103.901 216.415 103.364 220.19C103.13 221.843 103.175 223.299 103.501 224.555C103.524 224.652 103.535 224.751 103.535 224.848C103.538 225.955 103.237 226.389 102.632 226.152C102.525 226.107 102.436 226.026 102.383 225.922C101.25 223.631 101.025 221.178 101.709 218.564C102.065 217.197 103.008 216 103.711 214.765C103.799 214.609 103.841 214.439 103.838 214.257C103.776 211.318 103.54 208.391 103.13 205.478C103.008 204.619 102.642 203.896 102.681 202.993C102.692 202.749 102.622 202.508 102.481 202.307C102.341 202.107 102.138 201.958 101.904 201.884C99.8666 201.236 97.9867 200.356 96.2647 199.243C96.0856 199.129 95.9863 199.177 95.9668 199.389C95.778 201.495 95.5355 203.587 95.2393 205.663C94.7803 208.854 94.2546 212.071 93.6621 215.317C93.4278 216.577 94.1016 217.675 94.5459 218.813C94.7315 219.288 94.6029 219.653 94.1602 219.907L93.418 220.327C93.086 220.515 92.8679 220.426 92.7637 220.058C92.5586 219.33 92.5635 218.622 92.1924 217.949C90.2328 214.413 87.2363 212.538 83.2031 212.324C83.1556 212.321 83.1083 212.332 83.0667 212.356C83.0251 212.379 82.9909 212.413 82.968 212.455C82.9451 212.497 82.9344 212.544 82.9371 212.592C82.9398 212.639 82.9559 212.685 82.9834 212.724C83.6214 213.609 84.2562 214.493 84.8877 215.375C85.3369 216.005 85.3809 216.674 85.4492 217.426C85.4688 217.621 85.5746 217.745 85.7666 217.797C87.5049 218.237 89.1699 218.707 90.7617 219.208C91.8262 219.544 92.2559 220.338 92.0508 221.591C91.9955 221.94 92.0801 222.25 92.3047 222.524C92.4447 222.693 92.5375 222.887 92.583 223.105C93.2634 226.162 93.7582 229.311 94.0674 232.553C94.432 236.394 94.6712 240.006 94.7852 243.388C94.8307 244.674 95.0863 244.716 95.5518 243.515C97.7295 237.919 100.467 232.641 103.765 227.68C104.286 226.899 104.562 226.495 104.595 226.469C106.138 225.216 106.429 225.46 105.469 227.202C103.708 230.385 102.002 233.67 100.352 237.055C99.2513 239.314 97.9981 242.415 96.5918 246.357C96.2435 247.33 96.001 248.286 95.8643 249.223C95.7341 250.112 95.5453 250.956 95.2979 251.757C95.2197 251.998 95.3076 252.119 95.5616 252.119C98.4261 252.112 101.296 252.065 104.17 251.977C104.401 251.97 104.627 252 104.849 252.065C105.103 252.136 105.356 252.166 105.61 252.153C107.713 252.032 109.819 252.003 111.929 252.065C112.749 252.088 113.576 252.068 114.409 252.006C115.581 251.918 116.641 252.182 117.773 252.138C120.654 252.021 123.486 252.031 126.27 252.167C126.349 252.171 126.429 252.159 126.504 252.131C126.579 252.103 126.647 252.06 126.705 252.005C126.762 251.949 126.808 251.883 126.839 251.809C126.87 251.736 126.886 251.656 126.885 251.577C126.852 226.17 126.847 200.987 126.87 176.03C126.87 173.79 126.917 171.609 127.012 169.487C127.178 165.654 129.57 164.409 132.93 164.413C141.888 164.42 151.006 164.417 160.283 164.404C162.275 164.404 164.18 165.82 164.507 167.797C164.647 168.634 164.715 169.685 164.712 170.952C164.705 173.37 164.744 175.613 164.829 177.68C164.831 177.729 164.843 177.776 164.864 177.82C164.885 177.864 164.915 177.903 164.952 177.935C164.989 177.967 165.032 177.992 165.079 178.006C165.126 178.021 165.176 178.027 165.225 178.022C166.802 177.866 168.369 178.037 169.541 179.223C172.507 182.224 175.031 185.13 177.114 187.939C179.032 190.523 180.894 193.235 182.7 196.074C183.954 198.043 184.81 199.902 185.269 201.65C185.483 202.47 185.207 203.206 184.439 203.857C183.208 204.902 181.883 205.856 180.464 206.718C175.838 209.527 171.025 211.987 166.025 214.096C165.085 214.493 164.134 214.851 163.174 215.17C161.909 215.595 160.845 216.284 159.565 216.655C158.088 217.088 156.641 217.512 155.225 217.929C151.914 218.906 148.579 219.425 145.22 219.487C143.076 219.526 139.995 219.321 140.459 216.22C140.664 214.843 140.881 213.544 141.108 212.324C142.231 206.269 143.508 200.206 144.937 194.135C144.943 194.106 144.943 194.075 144.937 194.046C144.93 194.017 144.917 193.989 144.899 193.966C144.881 193.942 144.858 193.923 144.831 193.91C144.805 193.897 144.776 193.891 144.746 193.891L130.439 193.92C130.202 193.92 130.083 194.039 130.083 194.277L130.063 251.713C130.063 251.912 130.163 252.011 130.361 252.011L133.926 252.026C133.99 252.026 134.052 252.039 134.106 252.065C135.015 252.514 135.811 252.026 136.792 252.036C145.216 252.14 153.535 252.133 161.748 252.016C162.642 252.001 163.711 252.314 164.565 252.133C165.981 251.83 167.246 252.143 168.623 252.128C172.116 252.102 175.558 252.123 178.95 252.192C179.663 252.206 180.435 252.304 180.977 252.817C181.611 253.417 182.368 253.705 182.842 254.472C183.545 255.618 184.152 256.983 184.663 258.569C186.812 265.232 188.908 271.876 190.952 278.5C190.964 278.538 190.984 278.572 191.011 278.601C191.037 278.629 191.07 278.652 191.106 278.666C191.143 278.68 191.181 278.686 191.22 278.682C191.258 278.679 191.295 278.667 191.328 278.647C192.581 277.901 193.872 277.433 195.2 277.241C195.405 277.211 195.584 277.125 195.737 276.982C197.524 275.341 199.552 273.714 201.821 272.099C205.796 269.267 208.833 266.826 213.857 269.658C214.147 269.824 214.409 269.788 214.644 269.55L220.151 264.047C220.265 263.93 220.306 263.793 220.273 263.637C219.131 258.398 220.923 252.739 223.897 248.173C223.932 248.118 223.955 248.055 223.962 247.99C223.969 247.924 223.962 247.858 223.939 247.797C223.917 247.735 223.881 247.68 223.834 247.635C223.786 247.59 223.729 247.557 223.667 247.538C222.86 247.288 222.056 247.032 221.255 246.772C218.716 245.942 214.746 243.476 214.351 240.551C214.146 239.051 214.386 237.477 215.073 235.829C215.132 235.696 215.099 235.589 214.976 235.507C212.227 233.725 211.387 231.323 209.863 228.495C209.785 228.349 209.758 228.194 209.78 228.032C209.902 227.25 209.463 226.684 209.39 225.898C208.477 215.829 215.303 208.032 222.876 201.362C223.174 201.103 223.701 200.888 224.063 200.707C224.326 200.574 224.313 200.488 224.023 200.449C221.572 200.123 219.816 199.648 218.755 199.023C215.796 197.28 213.33 194.897 214.854 191.254C215.327 190.117 216.494 189.736 217.637 189.824C219.769 189.986 221.883 190.141 223.98 190.287C225.138 190.366 226.299 190.235 227.461 189.897C229.522 189.295 231.34 188.536 232.915 187.621C237.285 185.087 241.221 181.982 245.308 178.925C247.606 177.206 250.462 175.348 253.877 173.349C265.962 166.274 279.785 162.636 293.213 165.356C295.732 165.867 298.146 166.676 300.454 167.783C302.87 168.938 304.896 170.406 306.533 172.187C309.336 175.231 310.947 178.756 311.367 182.763C311.387 182.958 311.494 183.067 311.69 183.09C318.454 183.849 324.305 186.516 329.243 191.093C333.574 195.107 337.437 201.249 337.754 207.304C337.845 209.068 337.466 210.535 336.616 211.704C335.285 213.53 333.755 214.5 332.026 214.614C331.799 214.63 331.686 214.75 331.689 214.975C331.716 224.724 328.687 232.983 322.603 239.75C322.222 240.174 321.886 240.597 321.597 241.02C321.31 241.433 321.108 241.923 320.991 242.49C320.649 244.155 319.775 245.844 319.043 247.451C318.939 247.682 319.012 247.778 319.263 247.739C322.603 247.211 325.882 247.319 329.102 248.061C329.193 248.08 329.23 248.136 329.214 248.227C328.833 250.551 328.62 251.85 328.574 252.123C328.571 252.14 328.56 252.149 328.54 252.153C326.904 252.387 325.898 251.454 324.312 251.445C321.541 251.428 319.118 251.537 317.041 251.772C316.65 251.816 316.597 251.777 316.25 251.684C316.061 251.635 315.887 251.664 315.728 251.772L313.267 253.476C313.062 253.616 313.044 253.777 313.213 253.959L318.159 259.208C318.397 259.462 318.517 259.415 318.521 259.067L318.55 255.038C318.551 254.984 318.567 254.931 318.596 254.884C318.624 254.838 318.665 254.8 318.714 254.775C318.762 254.75 318.817 254.739 318.871 254.742C318.926 254.745 318.978 254.763 319.023 254.794C321.025 256.161 321.055 258.452 320.977 260.668C320.947 261.44 320.814 262.203 320.576 262.958C318.193 270.566 312.241 277.421 304.194 278.422C299.224 279.047 294.732 276.415 292.676 272.119C292.649 272.062 292.61 272.012 292.562 271.972C292.514 271.933 292.457 271.904 292.396 271.889C292.336 271.873 292.272 271.871 292.211 271.883C292.15 271.895 292.092 271.92 292.041 271.957C290.208 273.279 288.412 274.418 286.65 275.375C276.021 281.166 262.52 282.128 252.031 275.595C251.634 275.345 251.181 275.199 250.713 275.17C249.831 275.115 249.036 275.218 248.33 275.478C246.606 276.108 244.775 276.176 243.013 276.625C241.362 277.05 239.575 276.884 237.881 276.977C236.563 277.05 235.23 276.708 233.926 276.391C233.171 276.209 232.529 276.404 232.002 276.977C230.3 278.839 228.563 280.676 226.792 282.49C226.747 282.536 226.716 282.594 226.702 282.657C226.688 282.72 226.692 282.786 226.714 282.846C227.14 283.972 227.596 285.248 228.081 286.674C228.25 287.172 228.195 287.613 227.915 287.997C226.011 290.6 223.809 292.885 221.694 295.327C221.564 295.48 221.528 295.65 221.587 295.839C222.056 297.324 222.025 298.969 221.494 300.776C220.208 305.131 218.495 309.005 216.353 312.397C216.326 312.438 216.314 312.487 216.318 312.536C216.322 312.584 216.342 312.63 216.375 312.667C216.407 312.703 216.451 312.728 216.499 312.738C216.547 312.747 216.597 312.741 216.641 312.719C229.801 306.163 242.754 299.456 255.498 292.597C255.908 292.379 256.008 292.063 255.796 291.65C255.246 290.556 255.339 289.806 256.074 289.399C257.969 288.357 259.793 287.296 261.548 286.215C261.669 286.142 261.807 286.1 261.95 286.093C262.092 286.086 262.234 286.115 262.363 286.176C263.783 286.856 264.64 287.942 264.937 289.433C264.969 289.599 264.951 289.76 264.883 289.916C264.603 290.551 264.292 290.987 263.95 291.225C259.78 294.14 255.449 296.415 251.025 298.876C244.775 302.353 236.834 306.544 227.202 311.45C222.391 313.904 217.939 316.043 213.848 317.866C212.866 318.305 212.681 318.901 212.007 319.584C210.405 321.215 208.923 322.766 207.559 324.238C206.969 324.872 206.322 325.11 205.615 324.951C205.355 324.892 205.265 324.99 205.347 325.244L206.856 330.097C206.863 330.122 206.877 330.145 206.896 330.163C206.916 330.181 206.94 330.194 206.966 330.2C206.992 330.206 207.019 330.205 207.045 330.197C207.072 330.189 207.095 330.175 207.114 330.156C211.069 325.995 216.553 324.13 222.202 323.94C223.013 323.911 223.61 324.181 223.994 324.75C224.068 324.859 224.115 324.985 224.129 325.116C224.144 325.247 224.126 325.379 224.078 325.502C224.03 325.624 223.953 325.733 223.853 325.819C223.753 325.905 223.634 325.966 223.506 325.995C219.209 326.972 214.814 327.812 211.255 330.312C210.246 331.022 209.198 332.039 208.11 333.364C208.055 333.433 208.017 333.515 208.001 333.602C207.985 333.69 207.991 333.781 208.018 333.867L209.126 337.333C209.318 337.926 209.539 337.939 209.79 337.372C210.33 336.148 211.097 335.112 212.09 334.262C214.811 331.925 217.953 330.159 221.514 328.964C221.764 328.88 222.02 328.852 222.28 328.881C222.433 328.899 222.579 328.957 222.703 329.049C222.827 329.14 222.925 329.262 222.988 329.403C223.05 329.544 223.075 329.699 223.06 329.852C223.044 330.005 222.99 330.152 222.9 330.278C222.529 330.799 222.046 331.217 221.45 331.533C219.152 332.74 216.974 334.207 214.917 335.932C212.544 337.919 211.992 340.834 211.68 343.759C211.585 344.658 211.676 345.517 211.953 346.337C212.549 348.111 213.166 349.998 213.804 351.996C213.937 352.416 214.043 352.41 214.121 351.977C214.593 349.35 215.283 346.69 216.191 343.998C217.38 340.476 219.465 337.54 222.446 335.19C222.993 334.76 223.814 334.745 224.307 335.248C224.485 335.429 224.59 335.668 224.604 335.921C224.617 336.173 224.538 336.422 224.38 336.62C222.339 339.194 220.142 341.733 219.111 344.99C217.835 349.013 217.106 351.899 216.924 353.647C216.768 355.128 216.512 356.541 216.157 357.885C215.845 359.064 216.071 360.2 216.836 361.293C216.934 361.43 217.064 361.494 217.227 361.484L220.576 361.284C220.84 361.267 220.903 361.147 220.767 360.922L220.493 360.468C220.391 360.306 220.34 360.115 220.347 359.921C220.435 357.504 221.611 355.004 222.227 352.656C222.808 350.458 223.774 348.417 224.482 346.225C225.142 344.189 227.124 340.278 229.341 339.243C229.51 339.164 229.683 339.158 229.858 339.223C230.815 339.575 230.654 340.449 230.225 341.205C228.929 343.491 227.966 345.476 227.334 347.162C225.794 351.271 224.325 355.786 222.925 360.707C222.843 360.991 222.951 361.132 223.247 361.132L224.81 361.127C224.979 361.127 225.124 361.069 225.244 360.952C226.227 360.014 227.074 358.964 227.783 357.802C228.929 355.927 230.049 354.031 231.143 352.114C232.241 350.19 233.643 348.447 234.966 346.581C235.275 346.145 235.925 345.532 236.914 344.741C237.546 344.233 238.237 343.937 238.989 343.852C240.474 343.686 241.945 343.609 243.403 343.622C245.519 343.642 247.624 343.593 249.717 343.476C251.943 343.355 254.001 343.01 255.889 342.441C258.584 341.627 261.237 340.471 263.848 338.974C264.004 338.883 264.077 338.748 264.067 338.569C263.975 336.474 263.994 334.311 264.326 332.226C264.574 330.693 264.819 329.22 265.064 327.807C265.122 327.459 265.264 327.141 265.488 326.855C265.523 326.812 265.544 326.76 265.551 326.706C265.558 326.651 265.549 326.596 265.527 326.546C265.504 326.496 265.468 326.453 265.422 326.422C265.377 326.391 265.324 326.374 265.269 326.371C258.511 326.105 252.612 325.901 247.573 325.761C246.773 325.738 246.172 325.344 245.772 324.579C245.706 324.454 245.688 324.309 245.723 324.174C245.999 323.006 246.763 322.408 248.013 322.382C254.644 322.232 260.706 322.485 266.201 323.139C266.296 323.151 266.391 323.133 266.476 323.089C266.561 323.044 266.63 322.975 266.675 322.89C267.554 321.196 268.955 319.067 271.104 319.13C272.78 319.179 274.367 319.189 275.864 319.16C276.372 319.15 276.841 319.256 277.271 319.477C277.333 319.51 277.404 319.521 277.474 319.507C277.543 319.492 277.606 319.454 277.651 319.399C278.975 317.787 280.85 315.663 282.93 315.092C284.214 314.741 285.356 314.125 286.709 313.95C289.15 313.627 291.465 313.09 293.94 312.968C295.596 312.885 297.183 312.524 298.838 312.446C309.622 311.909 320.397 312.044 331.162 312.851C331.21 312.854 331.258 312.845 331.301 312.824C331.345 312.804 331.382 312.772 331.409 312.733C331.437 312.695 331.454 312.65 331.458 312.603C331.463 312.556 331.455 312.508 331.436 312.465C331.143 311.811 330.946 311.126 330.845 310.41C329.707 302.568 331.328 294.702 335.977 288.256C336.628 287.355 337.378 286.704 338.228 286.303C338.357 286.242 338.499 286.209 338.642 286.206C338.785 286.203 338.928 286.23 339.06 286.285C339.193 286.341 339.312 286.423 339.411 286.527C339.509 286.631 339.585 286.754 339.634 286.889C339.81 287.382 339.727 288.046 339.497 288.505C338.579 290.325 337.754 292.136 337.022 293.94C335.394 297.937 334.694 302.447 334.922 307.47C335.005 309.33 335.737 311.039 335.928 312.934C335.942 313.076 336.009 313.207 336.116 313.303C336.222 313.398 336.36 313.451 336.504 313.452C338.053 313.455 339.587 313.629 341.104 313.974C341.856 314.143 342.596 314.239 343.325 314.262C344.717 314.311 347.759 314.98 347.368 316.996C346.875 319.545 345.142 318.759 343.35 318.73C342.9 318.723 342.445 318.676 341.982 318.588C339.888 318.188 337.769 318.183 335.576 317.88C334.775 317.77 333.82 317.669 332.71 317.578C321.548 316.673 310.903 316.466 300.776 316.957C295.22 317.228 289.924 317.901 284.888 318.979C283.54 319.269 282.424 319.942 281.538 321C280.776 321.915 279.831 322.302 278.701 322.162C278.624 322.154 278.546 322.163 278.473 322.19C278.4 322.217 278.334 322.261 278.281 322.319C277.907 322.735 277.318 322.937 276.514 322.924C274.837 322.901 273.058 322.923 271.177 322.988C271.058 322.992 270.943 323.03 270.845 323.097C270.747 323.165 270.669 323.259 270.62 323.369C269.956 324.872 269.248 326.303 268.828 327.88C268.092 330.615 267.684 333.258 267.603 335.81C267.551 337.398 267.736 339.2 268.159 341.215C268.335 342.05 269.028 342.412 269.79 342.524C272.567 342.934 275.342 343.113 278.115 343.061C278.16 343.06 278.204 343.049 278.244 343.028C278.284 343.007 278.318 342.977 278.344 342.94C278.37 342.904 278.387 342.862 278.394 342.817C278.401 342.773 278.398 342.728 278.384 342.685C276.86 337.815 276.693 332.794 277.881 327.621C277.959 327.28 278.145 327.003 278.438 326.791C278.656 326.632 278.9 326.718 279.17 327.05C279.232 327.125 279.278 327.21 279.307 327.302C279.335 327.395 279.345 327.491 279.336 327.587C278.913 332.392 279.074 336.585 279.819 340.165C280.07 341.376 280.451 342.521 280.962 343.598C281.032 343.75 281.148 343.875 281.294 343.954C283.247 345.043 285.728 345.62 287.92 346.284C289.277 346.69 290.646 347.049 292.026 347.358C296.945 348.448 301.932 349.278 306.987 349.848C315.399 350.802 324.092 351.404 333.066 351.655C336.618 351.756 339.873 351.826 342.832 351.865C350.951 351.979 359.076 351.622 367.207 350.795C368.509 350.662 369.769 350.452 370.986 350.165C373.037 349.687 375.171 349.57 377.197 348.847C377.923 348.587 378.724 348.336 379.6 348.095C381.185 347.662 383.023 346.894 385.112 345.79C388.231 344.137 390.666 342.014 392.417 339.423C395.304 335.149 396.19 330.45 395.073 325.327C394.777 323.969 394.427 322.556 394.023 321.088C393.493 319.145 392.477 316.541 390.977 313.276C388.812 308.569 386.281 303.787 383.384 298.93C381.961 296.551 380.327 293.972 378.482 291.196C377.559 289.819 376.543 288.676 375.649 287.348C373.472 284.12 370.835 280.932 368.252 277.856C365.85 274.991 363.076 272.049 359.932 269.028C358.13 267.289 356.148 265.761 354.253 264.257C347.821 259.147 340.557 255.471 332.461 253.232C331.859 253.063 331.626 252.674 331.763 252.065L332.256 249.848C332.435 249.054 332.917 248.762 333.701 248.974C343.597 251.634 352.435 256.339 360.215 263.09C361.509 264.213 362.9 265.327 364.067 266.562C365.645 268.237 367.437 269.75 368.848 271.528C369.307 272.104 369.795 272.677 370.313 273.246C372.048 275.154 373.791 277.219 375.542 279.443C376.816 281.059 377.7 282.797 379.312 284.208C379.873 284.702 380.459 284.428 381.128 284.423C403.875 284.339 420.672 284.335 431.519 284.413C435.929 284.446 438.82 286.596 440.19 290.864C440.928 293.168 440.957 295.849 440.737 298.329C440.431 301.738 440.044 305.553 439.575 309.775C437.795 325.865 436.027 342.304 434.273 359.091C434.185 359.921 433.695 360.527 432.803 360.908C432.673 360.963 432.539 360.991 432.402 360.991C431.322 360.994 430.801 360.455 430.84 359.374C430.938 356.777 431.229 353.36 431.714 349.125C431.786 348.51 431.891 347.927 432.031 347.377C432.144 346.918 432.085 346.43 432.134 345.956C433.716 330.312 435.357 314.85 437.056 299.57C437.362 296.8 437.349 294.396 437.017 292.358C436.699 290.405 435.034 288.388 432.886 288.134C431.301 287.945 429.758 287.851 428.257 287.851C412.677 287.864 397.29 287.892 382.095 287.934C382.058 287.934 382.021 287.945 381.989 287.965C381.958 287.984 381.932 288.012 381.915 288.045C381.898 288.078 381.89 288.115 381.892 288.153C381.895 288.19 381.907 288.226 381.929 288.256C384.686 292.211 387.225 296.236 389.546 300.331C392.17 304.954 394.632 310.05 396.934 315.62C396.996 315.771 397.102 315.901 397.238 315.992C397.375 316.083 397.536 316.132 397.7 316.132L421.738 316.157C421.878 316.156 422.017 316.186 422.145 316.243C422.272 316.3 422.387 316.384 422.48 316.488C422.574 316.593 422.644 316.716 422.687 316.85C422.73 316.984 422.745 317.125 422.73 317.265C422.134 322.708 421.528 327.687 420.913 332.202C420.789 333.097 420.676 333.95 420.571 334.76C419.774 340.854 418.963 346.852 418.14 352.753C417.824 355.016 417.552 357.21 417.324 359.335C417.318 359.396 417.325 359.457 417.343 359.514C417.361 359.572 417.391 359.626 417.431 359.671C417.471 359.717 417.52 359.754 417.574 359.78C417.629 359.807 417.689 359.821 417.749 359.824C420.822 359.951 423.594 360.33 426.065 360.961C426.624 361.105 426.869 361.464 426.797 362.04C426.781 362.161 426.746 362.281 426.694 362.402C426.369 363.157 425.796 363.497 424.976 363.422C422.235 363.172 419.676 362.999 417.3 362.905C416.19 362.862 415.094 362.778 414.014 362.651C411.748 362.392 409.453 362.421 407.178 362.123C405.581 361.913 403.994 361.982 402.368 361.796C401.2 361.66 400.026 361.572 398.848 361.533C396.113 361.435 393.496 361.035 390.762 360.971C389.701 360.945 388.535 360.836 387.266 360.644C386.504 360.527 385.729 360.465 384.941 360.458C384.183 360.452 383.416 360.403 382.642 360.312C380.75 360.087 378.804 359.933 376.802 359.848C376.074 359.819 375.352 359.545 374.614 359.56C373.462 359.583 372.316 359.48 371.177 359.252C369.971 359.008 368.809 359.072 367.607 358.925C366.748 358.818 365.897 358.756 365.054 358.74C363.94 358.72 362.876 358.432 361.738 358.339C356.839 357.939 351.958 357.483 347.095 356.972C343.429 356.591 339.79 356.38 336.177 356.337C334.233 356.313 332.188 356.02 330.181 356.069C329.396 356.088 328.6 356.062 327.793 355.991C326.068 355.831 324.354 355.716 322.651 355.644C319.425 355.504 316.149 355.286 312.822 354.99C311.533 354.876 310.321 354.75 309.185 354.614C307.961 354.467 306.724 354.337 305.474 354.223C301.226 353.836 296.437 353.033 291.108 351.816C285.988 350.647 281.81 348.992 278.574 346.85C278.425 346.749 278.259 346.699 278.076 346.699C275.049 346.692 272.109 346.461 269.258 346.005C266.934 345.634 265.396 344.785 264.736 342.573C264.722 342.525 264.697 342.482 264.663 342.446C264.63 342.41 264.588 342.382 264.542 342.364C264.495 342.347 264.446 342.34 264.397 342.345C264.347 342.35 264.3 342.366 264.258 342.392C263.311 342.997 262.422 343.618 261.367 344.047C259.16 344.946 257.051 345.849 254.678 346.264C252.201 346.7 249.666 346.931 247.075 346.957C244.347 346.987 241.732 346.956 239.229 346.865C238.74 346.848 238.364 347.045 238.101 347.455C236.626 349.76 234.854 351.689 233.452 354.169C233.364 354.329 233.41 354.41 233.589 354.413C251.652 354.918 270.959 355.553 291.509 356.318C292.401 356.354 293.281 356.344 294.15 356.288C295.317 356.21 296.47 356.474 297.671 356.484C299.347 356.497 301.001 356.523 302.632 356.562C304.209 356.601 306.104 358.11 305.723 359.892C305.456 361.142 304.689 361.798 303.423 361.86C292.498 362.39 281.65 362.843 270.879 363.217C270.098 363.243 269.312 363.31 268.521 363.417C267.49 363.559 266.553 363.364 265.464 363.442C263.84 363.559 262.267 363.648 260.747 363.71C250.692 364.104 239.691 364.562 227.744 365.082C225.98 365.161 224.186 365.292 222.363 365.478C221.673 365.546 220.993 365.506 220.322 365.356C219.665 365.209 219.004 365.237 218.34 365.439C218.164 365.494 217.985 365.512 217.803 365.493L217.139 365.424C216.96 365.405 216.808 365.463 216.685 365.6C216.388 365.922 216.229 366.301 216.206 366.738C216.193 366.953 216.294 367.06 216.509 367.06C218.573 367.066 220.485 366.97 222.246 366.772C223.442 366.64 224.536 366.923 225.723 366.806C226.074 366.772 226.416 366.879 226.602 367.197C226.696 367.359 226.838 367.441 227.026 367.441C245.92 367.415 265.5 367.418 285.767 367.451C295.532 367.464 306.274 367.446 317.993 367.397C331.037 367.345 342.855 367.34 353.447 367.382C354.258 367.387 355.186 367.192 355.972 367.309C356.314 367.361 356.655 367.387 356.997 367.387C376.265 367.358 395.531 367.416 414.795 367.563C415.999 367.573 417.741 367.709 420.02 367.973C420.296 368.006 420.509 368.141 420.659 368.378C420.718 368.469 420.754 368.579 420.767 368.705C420.779 368.809 420.77 368.914 420.739 369.014C420.709 369.114 420.658 369.206 420.59 369.284C420.521 369.363 420.438 369.427 420.344 369.471C420.25 369.515 420.148 369.538 420.044 369.54C412.424 369.674 403.942 369.723 394.6 369.687C392.822 369.677 391.069 369.819 389.307 369.623C388.55 369.54 387.778 369.863 387.002 369.775C384.79 369.521 382.588 369.902 380.4 369.677C379.577 369.596 378.713 369.597 377.808 369.682C375.64 369.882 373.447 369.536 371.323 369.711C369.648 369.853 367.988 369.555 366.333 369.658C365.448 369.713 364.486 369.741 363.447 369.741C357.162 369.754 351.248 369.739 345.708 369.697C341.408 369.664 337.092 369.682 332.759 369.75C331.737 369.763 330.682 369.736 329.595 369.667C328.164 369.575 326.816 369.872 325.381 369.755C324.505 369.687 323.631 369.682 322.759 369.741C321.045 369.858 319.482 369.531 317.71 369.721C315.879 369.916 314.107 369.589 312.3 369.75C311.366 369.835 310.431 369.822 309.497 369.711C308.159 369.55 307.002 369.897 305.708 369.775C303.521 369.575 301.348 369.882 299.131 369.706C297.739 369.599 296.377 369.775 294.985 369.755C293.029 369.723 291.139 369.705 289.316 369.702C262.119 369.682 235.952 369.669 210.815 369.662C188.7 369.659 167.749 369.645 147.964 369.619C147.7 369.619 147.438 369.61 147.178 369.594C146.927 369.578 146.668 369.588 146.401 369.623C145.422 369.747 144.429 369.76 143.423 369.662C141.792 369.501 140.068 369.804 138.325 369.687C136.372 369.555 134.458 369.809 132.529 369.682C132.054 369.653 131.457 369.64 130.737 369.643C113.101 369.75 96.0515 369.755 79.5899 369.658C78.6068 369.651 77.6628 369.579 76.7578 369.443C76.6776 369.431 76.6004 369.404 76.5307 369.363C76.461 369.322 76.4001 369.267 76.3515 369.202C76.303 369.137 76.2677 369.063 76.2478 368.985C76.2279 368.906 76.2236 368.825 76.2354 368.745C76.3037 368.246 76.5707 367.962 77.0362 367.89C78.8558 367.613 80.9294 367.468 83.2569 367.455C93.2211 367.403 101.786 367.394 108.95 367.426C112.541 367.446 115.955 367.415 119.194 367.333C119.484 367.327 119.627 367.177 119.624 366.884L119.605 366C119.598 365.62 119.406 365.452 119.028 365.497C117.01 365.732 115.693 364.92 115.078 363.061C115.016 362.872 114.896 362.708 114.736 362.593C114.575 362.477 114.382 362.415 114.185 362.416C111.797 362.436 109.37 362.162 107.031 362.372C105.923 362.475 104.785 362.309 103.652 362.304C86.5332 362.236 68.9567 362.159 50.9229 362.075C50.0342 362.068 49.4434 361.8 49.1504 361.269C49.0886 361.152 49.0576 361.005 49.0576 360.829C49.0544 360.449 49.2416 360.232 49.6192 360.18C51.5528 359.916 53.8249 359.789 56.4356 359.799C74.2546 359.884 88.5352 359.882 99.2774 359.794C101.323 359.775 103.457 359.98 105.488 359.76C106.616 359.633 107.7 359.843 108.809 359.819C110.163 359.786 111.564 359.789 113.013 359.829C113.462 359.842 113.618 359.635 113.481 359.208L110.073 348.627C110.021 348.465 109.911 348.383 109.741 348.383C92.736 348.338 75.5729 348.315 58.252 348.315C55.459 348.318 52.6839 348.307 49.9268 348.281C48.9242 348.271 47.9802 348.159 47.0947 347.944C45.1074 347.46 45.7569 345.058 47.2852 344.716C48.4961 344.44 49.8926 344.301 51.4746 344.301C69.7722 344.291 88.2194 344.288 106.816 344.291C107.347 344.291 107.866 344.342 108.374 344.443C108.421 344.452 108.469 344.448 108.514 344.433C108.559 344.418 108.599 344.392 108.631 344.357C108.662 344.322 108.684 344.279 108.694 344.234C108.704 344.188 108.701 344.141 108.687 344.096L105.957 335.468C105.85 335.123 105.615 334.951 105.254 334.951C89.2318 334.934 73.7712 334.902 58.8721 334.853C55.1644 334.84 51.1198 334.729 46.7383 334.521C45.5697 334.466 45.07 333.875 45.2393 332.748C45.2621 332.605 45.293 332.465 45.332 332.329C45.5664 331.459 46.1312 330.999 47.0264 330.947C49.5296 330.794 52.2054 330.763 55.0537 330.854C55.6559 330.873 55.7194 330.698 55.2442 330.327C54.3408 329.623 53.5303 328.769 53.2227 327.651C52.0215 323.286 53.3301 317.626 58.1348 316.542C59.1569 316.311 61.0335 316.201 63.7647 316.21C67.6872 316.22 71.3444 316.261 74.7364 316.332C75.1856 316.339 75.2263 316.214 74.8584 315.956C71.5772 313.645 69.6175 310.401 68.9795 306.225C67.9541 299.49 67.4284 292.285 67.4024 284.609C67.3991 283.987 67.2591 283.386 66.9824 282.807C65.7471 280.244 64.7071 276.948 64.8487 274.135C64.9903 271.328 67.4903 268.251 70.4346 268.237C75.3793 268.214 80.0163 268.178 84.3457 268.129C84.541 268.129 84.6094 268.035 84.5508 267.846C83.9844 266.026 83.4099 264.161 82.8272 262.25C82.2949 260.512 82.2901 258.227 82.8369 256.581C83.2243 255.413 84.0235 254.249 85.2344 253.09C85.3125 253.017 85.3672 252.921 85.3915 252.816C85.4158 252.711 85.4087 252.601 85.3711 252.499C85.0358 251.634 84.764 250.724 84.5557 249.77C84.3897 249.033 83.9893 248.354 83.6133 247.69C83.5802 247.632 83.5328 247.585 83.4758 247.551C83.4188 247.517 83.3541 247.499 83.2878 247.497C83.2216 247.496 83.1561 247.511 83.0977 247.542C83.0392 247.574 82.9898 247.619 82.9541 247.675C82.4007 248.564 81.5755 249.169 80.4785 249.492C76.9011 250.54 73.5336 250.325 70.376 248.847C69.6501 248.509 68.9584 247.83 68.3008 246.811C68.0567 246.433 67.9476 246.018 67.9737 245.566C67.9802 245.429 68.0241 245.307 68.1055 245.2C68.3268 244.91 68.5417 244.915 68.75 245.214C69.5606 246.393 70.5111 247.158 71.6016 247.509C74.2774 248.365 77.0264 248.461 79.8487 247.797C79.8845 247.789 79.9172 247.77 79.9433 247.744C79.9693 247.718 79.9876 247.685 79.9962 247.649C80.0048 247.613 80.0033 247.576 79.9919 247.541C79.9805 247.506 79.9597 247.475 79.9317 247.451C78.4082 246.175 76.8653 244.833 75.3028 243.427C74.336 242.555 73.2113 241.861 71.9287 241.347C71.0645 241 70.083 241.132 69.1553 241.171C67.3682 241.249 67.1436 240.716 68.4815 239.57C68.9274 239.186 69.5899 238.958 70.4688 238.886C76.3819 238.383 81.4112 241.235 84.8438 245.854C85.3662 246.552 85.6836 247.324 85.9864 248.12C86.1263 248.481 86.211 248.468 86.2403 248.08C86.4404 245.302 86.5869 242.485 87.1045 239.731C87.3454 238.445 87.6009 237.133 87.8711 235.795C88.7533 231.42 89.6794 227.075 90.6494 222.758C90.8187 222 90.5778 221.834 89.9268 222.26C88.9795 222.885 87.71 222.817 86.7432 223.027C84.113 223.6 81.1784 223.424 77.9395 222.499C75.4395 221.782 70.542 218.984 70.4395 215.864C70.4362 215.776 70.4529 215.688 70.4885 215.607C70.5241 215.527 70.5775 215.455 70.6448 215.398C70.7121 215.341 70.7914 215.301 70.8768 215.279C70.9622 215.257 71.0514 215.255 71.1377 215.273L71.6162 215.366C71.8343 215.411 71.9824 215.331 72.0606 215.126C72.5 214.007 73.3008 213.079 74.4629 212.343C77.5619 210.384 80.9961 209.732 84.7657 210.39C87.2071 210.815 89.4287 211.572 91.1377 213.369C91.1798 213.413 91.2332 213.444 91.292 213.46C91.3509 213.476 91.413 213.475 91.4715 213.458C91.53 213.441 91.5827 213.408 91.6237 213.363C91.6647 213.318 91.6926 213.262 91.7041 213.203C92.5781 208.847 93.711 204.199 93.6719 199.731C93.6686 199.568 93.6198 199.422 93.5254 199.291C93.278 198.959 93.1169 198.637 93.042 198.325C92.417 195.646 91.5121 192.884 90.3272 190.038C90.1872 189.697 90.0342 189.69 89.8682 190.019C89.6875 190.395 89.6631 190.786 89.3848 191.137C86.333 194.96 79.751 194.687 75.9522 192.578C73.7061 191.328 72.0362 189.399 70.4395 187.47C70.1953 187.174 69.8877 186.951 69.5166 186.801C69.4151 186.76 69.326 186.694 69.2583 186.608C69.1906 186.522 69.1467 186.42 69.1309 186.311C69.115 186.203 69.1279 186.093 69.1682 185.991C69.2085 185.889 69.2747 185.8 69.3604 185.732C71.6553 183.925 74.7803 183.412 77.666 183.198C81.3672 182.919 85.1172 184.037 88.4278 185.629C88.4395 185.635 88.4528 185.638 88.466 185.637C88.4792 185.635 88.4917 185.63 88.502 185.622C88.5124 185.614 88.5201 185.603 88.5242 185.59C88.5284 185.577 88.5288 185.564 88.5254 185.551L87.8614 182.831C87.8288 182.704 87.749 182.623 87.6221 182.587C83.4619 181.474 80.8057 178.046 79.2237 174.091C78.7793 172.978 78.96 171.987 78.3887 170.869C77.793 169.702 78.2862 167.612 79.8682 167.538C84.3929 167.337 88.0209 168.701 90.752 171.63C91.722 172.672 92.334 174.044 92.5879 175.746C92.7767 177.013 92.5228 178.634 91.8262 180.61C91.5332 181.435 90.9815 182.846 89.9024 182.709C88.9128 182.582 88.7158 182.923 89.3116 183.73C90.8985 185.873 91.6309 188.525 92.7588 190.922C93.3399 192.153 93.4766 193.388 93.8672 194.682C94.056 195.304 94.4352 195.506 95.0049 195.287C95.2295 195.203 95.3646 195.278 95.4102 195.512C95.4932 195.937 95.669 196.318 96.0205 196.591C98.2699 198.326 100.737 199.566 103.423 200.312C103.452 200.319 103.482 200.317 103.511 200.308C103.539 200.299 103.564 200.282 103.583 200.259C103.602 200.236 103.615 200.209 103.619 200.179C103.624 200.15 103.62 200.12 103.608 200.092C102.124 196.772 100.322 194.218 96.9776 192.167C96.7692 192.04 96.626 192.093 96.5479 192.324C96.4763 192.535 96.4681 192.757 96.5235 192.988C96.533 193.026 96.5278 193.067 96.5089 193.103C96.4899 193.138 96.4586 193.165 96.4209 193.178C96.4046 193.185 96.39 193.185 96.377 193.178C96.3151 193.155 96.294 193.115 96.3135 193.056C96.5804 192.19 96.2761 191.679 95.4004 191.523C95.3154 191.507 95.2354 191.471 95.1672 191.418C95.099 191.365 95.0446 191.296 95.0086 191.218C94.9727 191.139 94.9562 191.053 94.9607 190.967C94.9651 190.881 94.9904 190.797 95.0342 190.722L95.5908 189.789C95.6722 189.656 95.7194 189.509 95.7324 189.35C96.1101 184.715 96.4356 180.393 96.709 176.386C96.7611 175.621 96.5983 174.662 96.2207 173.51C95.5957 171.606 93.7696 170.356 92.8809 168.618C91.1231 165.195 91.0498 160.746 93.208 157.402C93.833 156.43 94.2285 155.41 95.0489 154.545C96.1817 153.354 97.513 152.224 99.043 151.157C100.005 150.483 100.918 150.395 101.846 149.838C101.929 149.788 102.023 149.758 102.121 149.75C102.218 149.742 102.315 149.756 102.406 149.792C102.497 149.828 102.578 149.884 102.643 149.957C102.709 150.029 102.757 150.116 102.783 150.209C103.208 151.684 103.467 153.12 104.023 154.575C104.694 156.339 105.226 158.312 105.62 160.493C106.68 166.347 103.936 172.28 98.6524 175.131C98.4961 175.216 98.4099 175.348 98.3936 175.527C97.9346 180.502 98.0323 185.405 97.4463 190.268C97.4235 190.457 97.4984 190.595 97.6709 190.683C99.2432 191.464 101.855 193.061 102.73 194.672C102.915 195.014 103.039 194.991 103.101 194.604C103.75 190.444 106.973 188.115 110.635 186.147C111.162 185.864 111.675 186.01 112.061 185.532C112.189 185.372 112.375 185.269 112.578 185.244C112.782 185.22 112.987 185.276 113.149 185.4C115.776 187.377 115.747 190.283 115.513 193.271C115.438 194.208 115.145 195.069 114.634 195.854C112.713 198.784 110.392 200.763 107.671 201.791C107.594 201.821 107.527 201.87 107.476 201.935C107.426 201.999 107.393 202.076 107.383 202.158C107.139 204.13 106.912 206.285 106.704 208.622C106.685 208.847 106.613 209.055 106.489 209.247C106.294 209.55 106.008 209.615 105.63 209.443C105.588 209.424 105.541 209.416 105.495 209.42C105.448 209.423 105.404 209.439 105.365 209.465C105.326 209.491 105.295 209.526 105.274 209.568C105.253 209.609 105.243 209.655 105.244 209.702L105.356 212.91C105.358 212.944 105.368 212.977 105.386 213.006C105.404 213.035 105.43 213.058 105.461 213.074C105.491 213.089 105.525 213.096 105.559 213.094C105.593 213.092 105.626 213.08 105.654 213.061C106.318 212.607 106.787 212.021 107.515 211.65C110.721 210.019 114.067 209.378 117.554 209.726C118.818 209.853 119.98 210.659 120.815 211.498C121.535 212.215 121.408 212.428 120.435 212.138C117.92 211.386 115.781 211.122 113.154 211.996C113.082 212.02 113.018 212.062 112.968 212.119C112.918 212.176 112.884 212.245 112.871 212.319C112.507 214.272 112.381 216.176 112.495 218.032C112.505 218.201 112.591 218.255 112.754 218.193C116.061 216.946 118.74 215.175 120.791 212.88C120.829 212.839 120.875 212.807 120.926 212.787C120.978 212.766 121.033 212.757 121.088 212.761C121.143 212.765 121.196 212.781 121.244 212.808C121.291 212.836 121.332 212.874 121.362 212.919C121.729 213.466 121.909 214.101 121.631 214.731C119.668 219.145 116.532 222.358 112.222 224.37C111.899 224.521 111.587 224.472 111.274 224.648C110.22 225.25 109.053 225.551 107.773 225.551C107.715 225.551 107.658 225.537 107.607 225.51C107.556 225.483 107.512 225.443 107.48 225.395C107.425 225.314 107.406 225.227 107.422 225.136C107.448 224.996 107.52 224.887 107.637 224.809C108.258 224.386 108.872 224.037 109.478 223.764C112.287 222.491 114.733 220.865 116.816 218.886C117.992 217.77 117.876 217.617 116.47 218.427ZM95.5762 167.162C95.9864 162.768 97.6758 158.085 99.6338 153.574C99.9821 152.773 99.808 152.636 99.1114 153.163C97.653 154.267 96.2761 155.808 94.9805 157.787C94.0039 159.275 93.4847 160.802 93.4229 162.368C93.322 164.835 93.9063 167.062 95.1758 169.047C95.5404 169.62 95.6836 169.568 95.6055 168.891C95.5339 168.289 95.5241 167.713 95.5762 167.162ZM102.007 154.291C101.988 154.213 101.945 154.142 101.883 154.091C101.821 154.039 101.744 154.009 101.663 154.005C101.583 154.001 101.503 154.024 101.436 154.069C101.37 154.115 101.32 154.181 101.294 154.257L98.3985 162.856C98.3712 162.935 98.3718 163.022 98.4001 163.101C98.4284 163.18 98.4827 163.247 98.5542 163.292C98.6257 163.336 98.7101 163.355 98.7936 163.345C98.877 163.335 98.9547 163.297 99.0137 163.237L103.018 159.169C103.062 159.125 103.094 159.069 103.111 159.009C103.128 158.948 103.13 158.884 103.115 158.823L102.007 154.291ZM99.3213 165.014C98.9795 165.248 98.6475 165.331 98.2422 165.419C98.0534 165.458 97.9476 165.574 97.9248 165.766C97.6416 168.178 97.7214 170.483 98.1641 172.68C98.1782 172.752 98.2109 172.819 98.2588 172.874C98.3067 172.929 98.3683 172.971 98.4374 172.995C98.5065 173.02 98.5807 173.025 98.6527 173.012C98.7246 172.999 98.7919 172.967 98.8477 172.919C102.51 169.824 104.168 166.087 103.823 161.708C103.82 161.662 103.803 161.619 103.776 161.582C103.748 161.546 103.709 161.518 103.666 161.502C103.622 161.487 103.574 161.484 103.529 161.495C103.483 161.505 103.441 161.529 103.408 161.562C102.126 162.884 100.763 164.034 99.3213 165.014ZM148.813 184.125C149.146 184.083 149.382 183.902 149.522 183.583C149.607 183.384 149.757 183.221 149.946 183.12C152.368 181.816 154.771 180.522 157.48 179.638C158.744 179.228 160.007 178.836 161.27 178.461C161.445 178.409 161.522 178.294 161.499 178.115C161.309 176.723 161.548 175.253 161.528 173.832C161.509 172.149 161.466 170.414 161.401 168.627C161.382 168.09 161.104 167.82 160.566 167.817C150.081 167.761 140.837 167.753 132.832 167.792C132.064 167.799 131.313 167.908 130.581 168.12C130.259 168.214 130.098 168.43 130.098 168.769L130.107 190.097C130.107 190.445 130.283 190.62 130.635 190.62L145.61 190.629C145.832 190.629 145.972 190.523 146.03 190.312C146.405 188.928 146.746 187.555 147.056 186.191C147.275 185.229 147.744 184.267 148.813 184.125ZM84.336 169.736C82.876 169.257 81.8067 168.647 80.1758 168.657C80.1324 168.657 80.0897 168.668 80.0506 168.686C80.0114 168.705 79.9768 168.732 79.949 168.765C79.9212 168.799 79.9009 168.838 79.8895 168.88C79.8781 168.922 79.8758 168.965 79.8828 169.008C80.1123 170.341 81.4453 171.205 82.5293 171.83C85.3125 173.432 88.6866 175.898 90.0977 178.847C90.1115 178.877 90.134 178.902 90.1623 178.92C90.1906 178.937 90.2234 178.945 90.2564 178.944C90.2895 178.942 90.3213 178.931 90.3479 178.911C90.3744 178.891 90.3944 178.864 90.4053 178.832C91.0173 177.13 90.9294 175.616 90.1416 174.291C89.4483 173.123 88.5043 172.045 87.3096 171.059C86.4795 170.375 85.3614 170.073 84.336 169.736ZM81.5821 173.466C81.3054 173.303 81.2191 173.373 81.3233 173.676C82.5212 177.221 84.8031 179.584 88.169 180.766C88.2361 180.79 88.3085 180.794 88.3778 180.778C88.4471 180.762 88.5105 180.726 88.5606 180.675C88.6107 180.624 88.6455 180.56 88.6609 180.489C88.6762 180.419 88.6716 180.346 88.6475 180.278C88.4945 179.861 88.2845 179.474 88.0176 179.116C86.3477 176.896 84.2025 175.012 81.5821 173.466ZM150.479 216.254C151.051 216.384 151.637 216.381 152.236 216.245C155.641 215.463 159.071 214.361 162.524 212.939C166.987 211.096 171.403 208.954 175.772 206.513C178.731 204.856 180.973 203.414 182.5 202.187C182.634 202.076 182.661 201.944 182.583 201.791C180.985 198.64 178.763 195.134 175.918 191.274C173.21 187.595 170.534 184.212 167.891 181.122C167.168 180.278 166.406 180.336 165.43 180.483C162.552 180.916 159.961 181.503 157.656 182.245C154.932 183.12 152.461 184.496 149.775 185.453C149.609 185.512 149.512 185.626 149.482 185.795C149.248 187.081 148.986 188.346 148.696 189.589C146.577 198.629 144.829 207.625 143.452 216.577C143.444 216.63 143.447 216.685 143.462 216.738C143.478 216.79 143.504 216.838 143.541 216.879C143.577 216.92 143.622 216.953 143.673 216.975C143.723 216.997 143.778 217.008 143.833 217.006C145.477 216.957 147.196 216.839 148.989 216.65C149.395 216.606 149.683 216.435 150.049 216.288C150.189 216.233 150.332 216.222 150.479 216.254ZM87.3487 187.607C82.9346 185.141 78.0176 184.892 72.9395 186.025C72.8796 186.038 72.8238 186.065 72.7764 186.104C72.729 186.143 72.6914 186.193 72.6667 186.249C72.642 186.305 72.6308 186.366 72.6341 186.427C72.6374 186.488 72.655 186.548 72.6856 186.601C73.3692 187.776 74.3474 188.828 75.6201 189.755C77.0231 190.777 78.3578 191.388 79.6241 191.586C80.9815 191.798 82.3438 191.865 83.711 191.787C85.4981 191.682 86.862 190.994 87.8028 189.721C87.9245 189.557 88.0099 189.368 88.0531 189.168C88.0963 188.968 88.0965 188.761 88.0535 188.561C88.0106 188.361 87.9255 188.173 87.8039 188.008C87.6824 187.844 87.5272 187.707 87.3487 187.607ZM110.737 190.004C109.842 193.331 108.784 196.619 107.563 199.868C107.391 200.333 107.492 200.403 107.866 200.078C109.307 198.837 110.957 197.675 111.992 196.328C113.581 194.247 114.098 191.87 113.545 189.194C113.415 188.565 113.224 188.01 112.974 187.529C112.795 187.18 112.523 187.078 112.158 187.221C110.703 187.797 111.055 188.808 110.737 190.004ZM105.215 196.44C105.41 197.075 105.767 197.812 106.035 198.403C106.182 198.738 106.309 198.73 106.416 198.378L109.097 189.467C109.217 189.073 109.115 189.002 108.789 189.252C107.676 190.105 106.772 191 106.079 191.938C105.015 193.373 104.727 194.874 105.215 196.44ZM104.214 201.225C104.165 201.153 104.115 201.152 104.063 201.22C103.47 201.962 103.403 202.584 103.862 203.085C103.983 203.219 104.084 203.364 104.165 203.52L104.878 204.916C105.031 205.213 105.138 205.196 105.2 204.868C105.412 203.689 105.083 202.475 104.214 201.225ZM105.102 206.904C105.162 206.903 105.219 206.819 105.26 206.671C105.3 206.522 105.321 206.322 105.317 206.114C105.314 205.905 105.286 205.706 105.24 205.559C105.195 205.412 105.135 205.33 105.074 205.332C105.013 205.333 104.956 205.416 104.916 205.565C104.876 205.713 104.855 205.913 104.858 206.122C104.862 206.33 104.89 206.53 104.935 206.676C104.981 206.823 105.041 206.905 105.102 206.904ZM80.2979 217.353C81.2191 217.307 82.1533 217.276 83.1006 217.26C83.1818 217.259 83.261 217.235 83.3302 217.193C83.3993 217.15 83.4557 217.09 83.4936 217.018C83.5315 216.946 83.5495 216.866 83.5456 216.785C83.5418 216.703 83.5162 216.625 83.4717 216.557L80.8399 212.636C80.8026 212.579 80.7516 212.533 80.6918 212.501C80.632 212.47 80.5653 212.454 80.4981 212.455C77.2754 212.53 74.8796 213.745 73.3106 216.098C73.2625 216.169 73.2325 216.25 73.2231 216.335C73.2138 216.42 73.2253 216.506 73.2569 216.586C73.7289 217.771 74.5703 218.52 75.7813 218.832C75.9603 218.878 76.1328 218.86 76.2988 218.779C77.5684 218.159 78.877 217.421 80.2979 217.353ZM87.5913 220.708C87.6066 220.518 87.0962 220.294 86.1723 220.085C85.2484 219.875 83.9868 219.698 82.665 219.592C82.0105 219.539 81.3609 219.505 80.7533 219.493C80.1457 219.48 79.5921 219.488 79.1239 219.518C78.6558 219.547 78.2823 219.596 78.0249 219.663C77.7675 219.729 77.6311 219.812 77.6236 219.906C77.6083 220.096 78.1187 220.32 79.0426 220.529C79.9665 220.739 81.2281 220.916 82.5499 221.022C83.2044 221.075 83.854 221.109 84.4616 221.121C85.0691 221.134 85.6228 221.126 86.091 221.096C86.5591 221.067 86.9326 221.018 87.19 220.951C87.4474 220.885 87.5838 220.802 87.5913 220.708ZM240.444 249.609C240.812 249.628 241.04 249.822 241.128 250.19C242.261 255.009 243.384 259.819 245.523 264.555C245.913 265.419 246.67 266.015 247.119 266.865C247.409 267.415 247.78 267.937 248.232 268.432C251.582 272.089 255.435 274.619 260.068 275.844C266.27 277.485 272.288 277.39 278.125 275.561C279.489 275.131 280.954 274.614 282.52 274.008C283.54 273.613 284.268 273.056 285.166 272.495C286.191 271.855 287.358 271.645 288.291 270.834C289.079 270.141 289.894 269.493 290.737 268.891C293.008 267.265 294.966 264.912 296.968 263.017C297.114 262.877 297.309 262.8 297.512 262.801C297.714 262.803 297.908 262.884 298.052 263.027C299.434 264.394 295.508 268.544 294.551 269.448C294.242 269.741 294.25 270.024 294.575 270.297C295.913 271.43 297.062 272.661 298.022 273.989C299.585 276.157 302.7 275.952 305.049 275.546C305.918 275.395 306.572 274.868 307.422 274.604C308.014 274.422 308.589 274.148 309.146 273.784C313.094 271.209 315.885 267.682 317.52 263.203C317.585 263.023 317.549 262.869 317.412 262.739C314.792 260.222 312.399 257.62 310.234 254.931C310.19 254.877 310.13 254.837 310.063 254.817C309.996 254.797 309.925 254.797 309.858 254.819C307.99 255.434 306.089 255.725 304.155 255.693C303.381 255.683 302.72 255.283 302.173 254.492C302.01 254.26 302.015 253.966 302.188 253.608C302.243 253.491 302.327 253.391 302.432 253.317C302.538 253.243 302.66 253.196 302.788 253.183C305.158 252.926 307.022 252.571 308.379 252.119C312.529 250.732 315.49 248.142 317.261 244.35C317.886 243.012 318.265 241.69 318.398 240.385C318.571 238.705 318.491 237.18 318.159 235.81C317.42 232.773 315.659 230.439 312.876 228.808C312.173 228.398 311.416 228.305 310.684 227.997C310.182 227.789 309.645 227.677 309.072 227.661C300.23 227.412 297.5 235.068 298.379 242.519C298.393 242.635 298.382 242.752 298.347 242.863C298.311 242.975 298.253 243.077 298.174 243.163C298.096 243.25 298 243.319 297.893 243.365C297.786 243.411 297.67 243.434 297.554 243.432C297.199 243.425 296.891 243.264 296.631 242.949C295.628 241.738 294.844 240.494 294.277 239.218C294.186 239.02 294.033 238.914 293.818 238.901C289.453 238.611 285.602 237.092 282.266 234.345C278.281 231.061 275.472 226.915 273.838 221.909C273.779 221.726 273.672 221.583 273.516 221.479C273.491 221.462 273.462 221.45 273.432 221.445C273.402 221.441 273.371 221.443 273.342 221.452C273.312 221.461 273.285 221.476 273.262 221.497C273.239 221.518 273.22 221.543 273.208 221.572C269.131 230.869 262.5 238.725 252.441 241.049C250.387 241.524 247.948 241.524 245.122 241.049C244.911 241.013 244.725 241.069 244.565 241.215C241.893 243.679 238.926 245.489 235.664 246.645C233.086 247.556 230.433 247.874 227.705 247.597C227.529 247.578 227.396 247.644 227.305 247.797C226.247 249.627 225.41 251.241 224.795 252.641C223.594 255.372 222.972 258.512 222.93 262.06C222.915 262.9 223.56 263.422 222.847 264.467C221.31 266.707 219.517 268.836 217.466 270.854C217.4 270.918 217.348 270.996 217.314 271.082C217.28 271.168 217.265 271.26 217.269 271.352C217.273 271.444 217.297 271.535 217.338 271.617C217.38 271.699 217.438 271.772 217.51 271.83C220.371 274.171 222.853 276.804 224.956 279.731C224.97 279.751 224.988 279.767 225.01 279.779C225.031 279.791 225.054 279.798 225.078 279.8C225.103 279.802 225.127 279.798 225.15 279.79C225.172 279.781 225.193 279.768 225.21 279.75L231.528 273.29C231.666 273.148 231.841 273.047 232.033 272.998C232.226 272.948 232.428 272.953 232.617 273.012C237.217 274.443 242.759 273.608 247.407 272.402C247.458 272.388 247.504 272.361 247.541 272.323C247.578 272.285 247.605 272.238 247.618 272.187C247.63 272.136 247.63 272.082 247.615 272.032C247.6 271.981 247.572 271.935 247.534 271.899C244.927 269.467 243.001 266.564 241.758 263.188C241.744 263.153 241.721 263.123 241.69 263.101C241.66 263.079 241.623 263.066 241.586 263.065C241.549 263.063 241.513 263.073 241.482 263.092C241.451 263.111 241.426 263.14 241.411 263.173C240.933 264.218 239.922 264.731 238.916 265.185C236.566 266.236 234.284 266.29 232.07 265.346C230.273 264.581 229.39 263.289 229.419 261.469C229.439 260.076 229.937 258.876 230.913 257.871C233.325 255.384 236.214 254.562 239.58 255.405C239.766 255.453 239.844 255.382 239.815 255.19C239.554 253.624 239.619 251.876 240.01 249.946C240.031 249.846 240.086 249.758 240.166 249.696C240.245 249.634 240.344 249.603 240.444 249.609ZM92.2266 233.901C92.0671 232.11 91.9157 230.346 91.7725 228.608C91.7269 228.054 91.6504 228.051 91.543 228.598C90.0537 236.162 88.8916 243.495 88.3496 251.684C88.3366 251.866 88.4212 251.961 88.6035 251.967L92.4561 252.148C92.6319 252.158 92.723 252.075 92.7295 251.899C92.9606 246.212 92.793 240.213 92.2266 233.901ZM76.875 242.436L81.8897 246.132C81.8909 246.133 81.8923 246.134 81.8938 246.134C81.8953 246.134 81.8968 246.134 81.8982 246.133C81.8996 246.133 81.9009 246.132 81.902 246.131C81.903 246.13 81.9038 246.129 81.9043 246.127L81.9141 246.113C82.0002 245.993 81.8229 245.687 81.421 245.261C81.0191 244.835 80.4255 244.325 79.7705 243.842L79.6875 243.779C79.3621 243.539 79.0314 243.313 78.7142 243.114C78.3971 242.915 78.0998 242.747 77.8394 242.62C77.579 242.492 77.3607 242.408 77.1969 242.371C77.033 242.335 76.927 242.347 76.8848 242.407L76.8701 242.421C76.8693 242.423 76.8688 242.424 76.8686 242.425C76.8684 242.427 76.8685 242.428 76.869 242.43C76.8695 242.431 76.8703 242.432 76.8713 242.434C76.8723 242.435 76.8736 242.435 76.875 242.436ZM138.579 362.465C139.214 362.226 139.57 362.548 140.176 362.573C157.949 363.266 175.719 363.961 193.486 364.658C195.317 364.731 197.158 364.633 198.97 364.877C199.883 364.999 200.713 364.716 201.655 364.853C202.251 364.938 202.853 364.986 203.462 364.999C206.431 365.068 209.339 365.12 212.188 365.156C212.284 365.157 212.376 365.121 212.446 365.056C212.516 364.99 212.558 364.9 212.564 364.804C212.596 364.16 212.534 363.569 212.378 363.032C211.75 360.883 211.182 358.969 210.674 357.289C210.508 356.752 210.254 356.249 210.112 355.698C209.832 354.581 209.522 353.469 209.18 352.363C199.974 322.473 190.708 292.739 181.382 263.159C180.772 261.225 180.283 259.316 179.439 257.465C179.366 257.304 179.252 257.166 179.109 257.064C178.965 256.963 178.798 256.902 178.623 256.889C176.315 256.713 173.973 256.679 171.597 256.787C170.278 256.85 169.019 256.523 167.769 256.728C166.514 256.933 165.322 256.65 164.072 256.704C163.408 256.733 162.751 256.744 162.1 256.738C153.008 256.666 143.711 256.66 134.209 256.718C133.509 256.721 132.822 256.707 132.148 256.674C130.405 256.586 128.735 256.821 127.022 256.704C125.366 256.591 123.721 256.913 122.139 256.689C120.586 256.464 118.906 256.747 117.31 256.752C113.537 256.756 109.647 256.736 105.64 256.694C104.8 256.684 104.131 257.031 103.306 256.84C102.769 256.72 102.205 256.664 101.616 256.674C97.3617 256.756 93.252 256.756 89.2871 256.674C87.5293 256.64 86.4502 258.788 86.8408 260.297C87.0101 260.961 87.1957 261.611 87.3975 262.245C94.2334 283.785 101.038 305.338 107.813 326.904C111.4 338.323 114.98 349.492 118.555 360.41C118.814 361.196 118.843 361.923 119.878 361.84C122.147 361.658 124.443 361.733 126.768 362.065C127.661 362.192 128.32 361.801 129.209 361.987C130.189 362.195 131.118 362.27 131.997 362.211C133.989 362.084 136.05 362.333 138.027 362.534C138.219 362.553 138.403 362.53 138.579 362.465ZM240.801 261.557C240.928 261.401 240.968 261.223 240.923 261.025L239.995 257.075C239.979 257.005 239.943 256.941 239.891 256.891C239.84 256.841 239.774 256.806 239.702 256.791C236.44 256.162 232.573 257.172 231.289 260.493C230.571 262.338 231.797 263.871 233.628 264.096C236.763 264.477 239.154 263.631 240.801 261.557ZM72.3584 282.914C74.1032 282.696 76.0059 282.573 78.0664 282.543C81.836 282.491 85.4427 282.496 88.8867 282.558C88.9257 282.559 88.9644 282.55 88.9992 282.533C89.0341 282.515 89.0641 282.489 89.0868 282.458C89.1094 282.426 89.1239 282.389 89.129 282.35C89.1342 282.312 89.1298 282.272 89.1162 282.236C88.5466 280.696 88.0062 279.15 87.4951 277.597C86.8506 275.615 86.4942 273.652 85.542 271.767C85.3858 271.454 85.1319 271.3 84.7803 271.303C80.0309 271.352 75.2637 271.306 70.4785 271.166C69.9707 271.15 69.4841 271.192 69.0186 271.293C68.8456 271.331 68.6912 271.432 68.584 271.577C67.78 272.683 67.4854 273.894 67.7002 275.209C67.9769 276.896 68.4945 278.72 69.253 280.683C69.7803 282.036 69.8145 283.378 70.044 284.77C70.2067 285.776 70.3369 286.788 70.4346 287.807C70.8708 292.42 71.2842 297.036 71.6748 301.655C72.1826 307.69 73.7256 312.368 79.7705 314.77C80.6332 315.112 81.5088 315.44 82.3975 315.756C83.2634 316.062 84.1813 316.236 85.1514 316.279C86.4763 316.337 87.9086 316.352 89.4483 316.323C93.0518 316.258 96.4063 316.259 99.5117 316.328C99.5452 316.328 99.5783 316.321 99.6084 316.307C99.6385 316.292 99.6646 316.27 99.6847 316.244C99.7047 316.217 99.7181 316.186 99.7237 316.153C99.7293 316.12 99.7269 316.086 99.7168 316.054L89.9707 285.185C89.9228 285.034 89.8277 284.902 89.6994 284.809C89.5711 284.716 89.4164 284.666 89.2578 284.667C84.3002 284.697 78.9649 284.628 73.252 284.462C72.627 284.448 71.9971 284.042 71.9678 283.378C71.9621 283.267 71.9991 283.157 72.0715 283.071C72.1439 282.985 72.2464 282.929 72.3584 282.914ZM215.352 290.488C214.824 290.865 214.334 290.79 213.882 290.263C212.686 288.876 211.685 287.529 210.225 286.342C208.262 284.744 206.2 283.396 204.038 282.299C202.173 281.352 200.039 280.219 198.022 279.955C196.606 279.77 193.594 281.64 192.466 282.285C192.271 282.398 192.207 282.561 192.275 282.773C195.885 294.264 199.439 305.654 202.935 316.943C203.389 318.417 204.307 320.746 204.57 322.675C204.733 323.854 204.954 323.865 205.234 322.709C205.293 322.475 205.573 322.053 206.074 321.445C211.283 315.152 215.335 308.12 218.232 300.346C218.701 299.086 218.96 297.748 219.067 296.406C219.219 294.56 219.995 292.631 221.328 291.308C222.583 290.068 223.428 288.618 224.746 287.363C225.023 287.099 225.083 286.791 224.927 286.44C222.502 281.007 218.84 276.637 213.94 273.329C211.953 271.992 210.024 270.961 207.754 272.348C205.156 273.927 202.542 275.888 199.912 278.232C199.876 278.264 199.849 278.305 199.835 278.351C199.82 278.397 199.819 278.446 199.831 278.493C199.842 278.54 199.866 278.583 199.9 278.617C199.935 278.651 199.978 278.675 200.024 278.686C205.151 279.97 210.103 282.861 213.687 286.938C214.543 287.911 215.16 288.883 215.537 289.853C215.581 289.964 215.587 290.087 215.554 290.202C215.52 290.317 215.449 290.418 215.352 290.488ZM410.176 357.48C410.249 357.997 410.039 358.329 410.02 358.808C410.013 359.003 410.106 359.109 410.298 359.125L414.028 359.453C414.12 359.461 414.211 359.434 414.283 359.376C414.355 359.319 414.402 359.236 414.414 359.145L419.727 319.457C419.733 319.414 419.73 319.37 419.717 319.327C419.704 319.285 419.683 319.246 419.654 319.213C419.625 319.18 419.589 319.153 419.548 319.134C419.508 319.116 419.464 319.106 419.419 319.106C416.473 319.125 413.392 319.109 410.176 319.057C409.106 319.037 408.091 319.223 407.051 319.135C406.26 319.067 405.482 319.047 404.717 319.077C402.751 319.151 400.749 319.127 398.711 319.003C398.656 319 398.601 319.011 398.551 319.033C398.501 319.056 398.457 319.09 398.423 319.133C398.388 319.176 398.365 319.226 398.354 319.28C398.343 319.334 398.345 319.39 398.359 319.443C398.672 320.569 399.079 321.635 399.58 322.641C400.122 323.725 400.313 324.877 400.825 326.01C401.151 326.723 401.453 327.449 401.733 328.188C404.435 335.346 406.769 342.721 408.735 350.312C409.383 352.809 409.863 355.198 410.176 357.48ZM60.7959 319.833C59.1651 319.833 57.1143 319.291 56.3965 321.342C55.3174 324.428 55.4834 329.013 59.9072 328.989C74.6403 328.911 89.1944 328.896 103.569 328.945C103.614 328.945 103.658 328.934 103.698 328.913C103.737 328.892 103.771 328.861 103.796 328.824C103.821 328.787 103.837 328.744 103.842 328.7C103.846 328.655 103.84 328.61 103.823 328.569C102.765 326.004 101.88 323.329 101.167 320.546C101.124 320.373 101.025 320.219 100.884 320.107C100.744 319.996 100.57 319.934 100.391 319.931C93.6914 319.85 87.5147 319.851 81.8604 319.936C81.473 319.939 81.1019 319.905 80.7471 319.833C79.7998 319.648 78.794 319.926 77.8369 319.916C72.4463 319.858 66.766 319.83 60.7959 319.833ZM396.636 357.831C397.315 357.758 397.944 358.095 398.667 358.129C400.939 358.233 403.255 358.37 405.615 358.539C405.768 358.549 405.83 358.479 405.801 358.329C405.111 354.752 404.245 351.105 403.203 347.387C402.057 343.279 400.785 339.171 399.385 335.063C399.323 334.884 399.273 334.887 399.233 335.073C397.256 344.37 388.877 350.214 380.283 352.817C377.422 353.683 374.245 354.422 370.752 355.034C370.547 355.069 370.539 355.133 370.728 355.224C371.216 355.465 371.755 355.613 372.344 355.668C379.841 356.375 387.326 357.097 394.8 357.836C395.422 357.898 396.034 357.897 396.636 357.831ZM369.932 355.195C369.889 355.195 369.852 355.208 369.819 355.234C369.8 355.253 369.803 355.266 369.829 355.273C369.868 355.283 369.906 355.281 369.941 355.268C370.072 355.219 370.068 355.195 369.932 355.195ZM151.05 367.045L149.932 366.777C149.775 366.741 149.621 366.747 149.468 366.796C149.025 366.943 148.569 366.987 148.101 366.928C147.528 366.86 146.987 366.816 146.48 366.796C139.432 366.536 132.661 366.277 126.167 366.02C125.425 365.991 124.635 365.934 123.799 365.849C123.353 365.803 123.127 366.007 123.12 366.459V366.84C123.114 367.283 123.33 367.485 123.77 367.446C125.14 367.329 126.771 367.281 128.662 367.304C133.958 367.363 140.101 367.369 147.09 367.324C147.935 367.314 148.618 367.099 149.463 367.416C149.622 367.478 149.785 367.491 149.951 367.455L151.099 367.216C151.265 367.18 151.424 367.195 151.577 367.26C152.157 367.504 152.762 367.521 153.394 367.309C153.647 367.224 153.647 367.138 153.394 367.05C152.769 366.829 152.163 366.819 151.577 367.021C151.405 367.079 151.229 367.088 151.05 367.045ZM156.987 367.182C156.988 367.164 156.968 367.145 156.93 367.128C156.892 367.11 156.835 367.093 156.764 367.078C156.693 367.063 156.608 367.05 156.515 367.041C156.422 367.031 156.321 367.024 156.22 367.021C156.119 367.018 156.018 367.018 155.925 367.022C155.831 367.026 155.746 367.033 155.674 367.044C155.602 367.054 155.544 367.068 155.505 367.083C155.466 367.098 155.445 367.115 155.445 367.133C155.444 367.151 155.464 367.17 155.502 367.188C155.54 367.205 155.596 367.222 155.668 367.237C155.739 367.252 155.823 367.265 155.917 367.275C156.01 367.284 156.11 367.291 156.212 367.294C156.313 367.297 156.413 367.297 156.507 367.293C156.601 367.289 156.686 367.282 156.758 367.271C156.83 367.261 156.887 367.248 156.927 367.232C156.966 367.217 156.986 367.2 156.987 367.182Z" fill="#09090B"/>
<path d="M391.782 161.259C392.026 161.315 392.275 161.375 392.529 161.44C394.938 162.058 397.334 162.727 399.717 163.447C400.228 163.6 400.755 163.966 401.299 164.545C401.432 164.689 401.47 164.853 401.411 165.038C401.307 165.384 401.266 165.735 401.289 166.093C401.328 166.66 400.972 167.206 400.635 167.626C398.896 169.781 397.113 171.808 395.283 173.705C392.799 176.28 390.308 178.751 387.808 181.118C387.241 181.655 386.593 182.008 385.864 182.177C385.106 182.35 384.46 182.089 383.926 181.396C383.626 181.005 383.428 180.53 383.33 179.97C383.011 178.186 382.682 176.461 382.344 174.794C381.592 171.093 380.864 167.089 381.104 163.207C381.167 162.197 381.582 161.264 381.938 160.341C382.019 160.131 382.162 159.949 382.348 159.819C382.534 159.69 382.755 159.618 382.983 159.614C384.276 159.594 385.594 159.757 386.938 160.102C388.625 160.535 390.239 160.921 391.782 161.259ZM390.366 165.029C388.54 164.71 386.802 164.254 385.151 163.662C385.115 163.648 385.076 163.644 385.038 163.65C385 163.656 384.964 163.671 384.933 163.694C384.903 163.718 384.878 163.749 384.863 163.784C384.847 163.819 384.841 163.857 384.844 163.896C385.231 168.043 385.838 172.184 386.665 176.318C386.675 176.375 386.702 176.427 386.742 176.468C386.783 176.509 386.834 176.538 386.891 176.55C386.948 176.562 387.007 176.557 387.062 176.535C387.116 176.514 387.163 176.477 387.197 176.43C388.159 175.063 389.448 174.062 390.581 172.861C391.709 171.674 392.642 170.629 393.955 169.345C394.762 168.554 395.511 167.704 396.201 166.796C396.228 166.762 396.244 166.72 396.249 166.677C396.253 166.633 396.245 166.589 396.226 166.55C396.207 166.51 396.177 166.476 396.14 166.451C396.103 166.427 396.06 166.413 396.016 166.411C394.349 166.323 392.873 165.921 391.587 165.204C391.201 164.99 390.791 165.107 390.366 165.029Z" fill="#09090B"/>
<path d="M315.356 177.436C315.275 178.149 314.949 178.751 314.38 179.243C314.301 179.312 314.203 179.355 314.099 179.368C313.995 179.381 313.89 179.362 313.797 179.314C313.703 179.266 313.627 179.192 313.577 179.1C313.527 179.007 313.505 178.903 313.516 178.798C313.678 177.154 313.784 175.582 313.833 174.081C313.918 171.471 313.4 168.971 312.28 166.581C312.245 166.504 312.23 166.419 312.237 166.334C312.244 166.249 312.273 166.167 312.321 166.097C312.37 166.026 312.435 165.97 312.512 165.932C312.589 165.895 312.674 165.878 312.759 165.883C313.628 165.942 314.57 167.827 314.819 168.505C315.727 170.963 315.97 173.491 315.547 176.088C315.475 176.521 315.412 176.97 315.356 177.436Z" fill="#09090B"/>
<path d="M172.822 203.227C173.794 202.934 175.068 202.763 176.079 202.944C176.188 202.964 176.287 203.018 176.362 203.099C176.438 203.179 176.486 203.282 176.499 203.391C176.512 203.501 176.49 203.612 176.435 203.708C176.381 203.804 176.297 203.88 176.196 203.925C175.187 204.371 174.09 204.785 172.905 205.165C167.739 206.826 162.297 208.678 156.577 210.722C153.468 211.832 150.565 213.274 147.866 215.048C147.534 215.266 147.212 215.266 146.899 215.048C146.835 215.003 146.78 214.944 146.739 214.877C146.698 214.809 146.671 214.734 146.661 214.656C146.65 214.578 146.656 214.499 146.678 214.424C146.699 214.348 146.737 214.278 146.787 214.218C147.441 213.427 148.138 212.796 148.877 212.324C151.392 210.722 154.346 209.418 157.222 208.383C162.443 206.508 167.643 204.789 172.822 203.227Z" fill="#09090B"/>
<path d="M266.05 249.975C266.211 248.564 268.057 247.861 269.136 248.696C269.898 249.288 270.549 250.1 271.089 251.132C272.041 252.958 273.604 256.03 272.075 257.773C270.913 259.096 269.004 258.383 268.193 257.079C267.022 255.195 265.786 252.289 266.05 249.975Z" fill="#09090B"/>
<path d="M250.283 251.62C250.708 251.62 251.128 251.464 251.509 251.757C253.125 253.032 254.302 255.546 255.049 257.524C255.592 258.956 255.304 260.076 254.185 260.883C253.084 261.677 252.049 261.495 251.079 260.336C249.526 258.486 248.018 255.678 248.472 253.212C248.667 252.148 249.271 251.617 250.283 251.62Z" fill="#09090B"/>
<path d="M327.485 266.723C327.402 266.913 327.451 267.153 327.388 267.353C325.357 273.701 321.636 278.688 316.226 282.314C314.683 283.349 313.125 283.828 311.499 284.614C310.054 285.312 308.335 285.366 306.777 285.771C306.107 285.943 305.444 285.987 304.79 285.903C303.867 285.79 303.013 286 302.1 285.844C300.283 285.532 296.519 284.794 295.772 283.027C295.744 282.963 295.735 282.892 295.745 282.824C295.755 282.755 295.784 282.69 295.829 282.636C295.874 282.582 295.933 282.541 295.999 282.518C296.066 282.495 296.137 282.49 296.206 282.504C298.135 282.919 299.8 283.73 301.846 283.891C305.679 284.189 310.581 283.456 313.833 281.225C314.57 280.722 315.401 280.517 316.05 279.911C317.305 278.749 318.657 277.851 319.81 276.542C322.948 272.971 325.205 268.875 326.582 264.252C326.628 264.09 326.73 263.982 326.89 263.93C327.072 263.865 327.259 263.87 327.451 263.945C327.65 264.02 327.765 264.161 327.798 264.37C327.918 265.167 327.814 265.952 327.485 266.723Z" fill="#09090B"/>
<path d="M361.482 316.082L355.009 315.698C354.454 315.665 353.978 316.087 353.945 316.642L353.941 316.71C353.908 317.265 354.331 317.741 354.885 317.774L361.358 318.159C361.913 318.192 362.389 317.769 362.422 317.214L362.426 317.146C362.459 316.591 362.036 316.115 361.482 316.082Z" fill="#09090B"/>
<path d="M232.505 326.044C231.768 326.386 230.762 326.249 230.059 325.971C229.943 325.925 229.838 325.855 229.751 325.766C229.664 325.677 229.597 325.57 229.555 325.453C229.513 325.336 229.497 325.211 229.507 325.087C229.517 324.964 229.554 324.844 229.614 324.736C230.854 322.494 236.709 322.192 239.336 322.089C240.093 322.06 240.679 322.284 241.362 322.543C241.605 322.633 241.809 322.804 241.939 323.028C242.069 323.252 242.117 323.514 242.075 323.769C241.909 324.752 241.313 325.273 240.288 325.331C238.071 325.455 235.814 325.606 233.516 325.785C233.158 325.812 232.821 325.898 232.505 326.044Z" fill="#09090B"/>
<path d="M426.655 390.898C425.483 390.683 424.277 390.917 423.115 390.912C407.116 390.873 391.159 390.89 375.244 390.961C371.937 390.978 368.682 390.984 365.479 390.981C316.725 390.952 269.442 390.925 223.628 390.903C212.189 390.899 200.635 390.908 188.965 390.927C165.68 390.973 142.397 390.989 119.116 390.976C118.335 390.976 117.539 390.95 116.729 390.898C115.552 390.82 114.414 390.995 113.242 390.995C99.1081 390.979 85.0342 390.965 71.0205 390.952C70.7212 390.95 70.4313 390.852 70.1962 390.671C69.9612 390.491 69.7943 390.239 69.7217 389.955C69.6403 389.643 69.9317 389.308 70.5957 388.95C70.7148 388.885 70.8449 388.849 70.9766 388.842C75.7194 388.624 80.4492 388.59 85.166 388.74C86.6309 388.788 88.0469 388.588 89.4971 388.701C90.9961 388.813 92.5293 388.662 94.0528 388.666C98.7272 388.686 103.4 388.678 108.071 388.642C109.032 388.632 109.98 388.657 110.918 388.715C112.202 388.798 113.442 388.549 114.722 388.666C116.553 388.832 118.423 388.652 120.288 388.652C122.756 388.652 125.28 388.666 127.861 388.696C128.636 388.702 129.411 388.673 130.186 388.608C131.24 388.525 132.275 388.759 133.359 388.73C135.824 388.658 138.335 388.635 140.894 388.662C149.341 388.754 157.92 388.613 166.118 388.671C169.435 388.694 172.609 388.683 175.64 388.637C176.675 388.621 177.65 388.652 178.564 388.73C179.561 388.815 180.555 388.803 181.548 388.696C182.446 388.593 183.179 388.73 184.028 388.72C187.625 388.668 191.305 388.647 195.068 388.657C212.643 388.696 230.343 388.728 248.169 388.754C257.84 388.767 268.42 388.764 279.907 388.745C298.674 388.712 318.164 388.697 338.379 388.701C346.676 388.701 355.382 388.668 364.497 388.603C365.327 388.596 366.146 388.634 366.953 388.715C368.101 388.832 369.189 388.515 370.322 388.632C371.733 388.769 373.057 388.539 374.443 388.622C377.437 388.808 380.552 388.691 383.516 388.691C397.002 388.71 410.094 388.731 422.793 388.754C423.363 388.758 423.931 388.746 424.497 388.72C425.711 388.668 426.906 388.777 428.081 389.047C428.223 389.08 428.354 389.151 428.459 389.252C428.564 389.353 428.64 389.481 428.678 389.622C428.716 389.763 428.715 389.912 428.675 390.052C428.636 390.192 428.558 390.319 428.452 390.419C427.97 390.865 427.371 391.025 426.655 390.898Z" fill="#09090B"/>
</svg>
