<svg width="400" height="320" viewBox="0 0 400 320" fill="none" xmlns="http://www.w3.org/2000/svg">
<g clip-path="url(#clip0_49_492)">
<path d="M298.484 285.109C301.091 285.077 303.601 285.083 306.014 285.127C314.615 285.281 322.197 285.368 328.758 285.388C353.758 285.471 377.233 285.432 399.182 285.269C399.317 285.269 399.388 285.2 399.396 285.061C400.046 264.253 400.353 243.33 400.317 222.291C400.301 214.748 399.905 207.283 399.129 199.898C398.16 190.716 394.695 182.729 387.409 177.368C384.2 175.003 380.606 173 376.628 171.36C362.954 165.72 346.949 163.717 331.878 163.058C328.324 162.899 324.809 162.699 321.335 162.457C321.164 162.446 320.997 162.397 320.846 162.313C320.695 162.229 320.564 162.112 320.461 161.97C318.421 159.133 316.355 156.334 314.263 153.573C308.399 145.831 301.727 139.262 294.247 133.866C291.62 131.972 289.001 130.387 286.39 129.111C286.34 129.088 286.296 129.052 286.264 129.007C286.232 128.962 286.212 128.91 286.206 128.855C286.2 128.8 286.208 128.744 286.23 128.693C286.252 128.642 286.286 128.598 286.331 128.565C294.912 121.819 297.801 110.415 294.062 100.258C292.565 96.199 289.439 92.0864 285.891 89.727C285.84 89.6938 285.796 89.6498 285.764 89.5982C285.732 89.5467 285.711 89.4887 285.703 89.4282C285.695 89.3678 285.7 89.3064 285.718 89.2482C285.736 89.19 285.767 89.1364 285.808 89.0911C292.285 81.7694 296.255 73.8473 293.967 63.9404C293.912 63.6908 293.999 63.5125 294.229 63.4055C295.362 62.8746 296.598 62.2743 297.937 61.6048C303.975 58.5738 307.987 52.2386 305.277 45.5825C304.136 42.7813 301.978 41.7928 298.805 42.6169C295.221 43.55 291.786 44.7802 288.03 44.376C287.824 44.3523 287.687 44.2433 287.62 44.0492C285.168 37.3098 280.94 31.6065 274.938 26.9393C268.702 22.0858 261.693 19.9979 253.911 20.6754C252.574 20.7883 251.356 21.0914 250.096 21.5787C249.708 21.7253 249.625 21.6223 249.846 21.2697C252.372 17.1987 244.474 11.8144 241.71 10.3583C231.964 5.24735 218.319 4.44503 208.085 8.33769C207.835 8.43674 207.643 8.36939 207.509 8.13563C205.488 4.61144 201.601 2.34716 197.56 1.93709C194.367 1.60825 191.383 1.85984 188.61 2.69186C177.889 5.91296 169.616 13.8885 164.648 23.9737C163.487 26.3311 162.631 28.8371 162.08 31.4916C162.072 31.53 162.055 31.5659 162.03 31.5961C162.004 31.6262 161.972 31.6497 161.937 31.6645C161.901 31.6792 161.862 31.6847 161.824 31.6804C161.785 31.6762 161.749 31.6624 161.718 31.6402C155.323 27.3256 146.551 25.4773 139.229 27.6406C136.204 28.532 132.544 31.1885 132.116 34.3799C131.83 36.4956 133.057 38.0309 135.794 38.9857C139.269 40.1981 143.17 40.9885 147.496 41.357C148.237 41.4164 148.285 41.6284 147.639 41.9929C141.953 45.1981 137.411 49.6475 134.012 55.3408C133.354 56.4383 132.843 57.6368 132.478 58.9364C132.391 59.2565 132.179 59.5298 131.89 59.6971C130.804 60.331 129.622 60.7331 128.342 60.9035C122.839 61.6365 118.191 60.5033 114.4 57.5041C113.062 56.4522 111.083 56.1016 109.705 57.2426C107.767 58.8413 106.674 61.6048 106.472 64.0592C105.717 73.1223 112.718 77.2289 120.628 77.954C120.68 77.9586 120.73 77.9767 120.774 78.0066C120.817 78.0365 120.852 78.0771 120.874 78.1245C120.897 78.1718 120.907 78.2243 120.904 78.2767C120.9 78.3291 120.883 78.3797 120.854 78.4235C115.374 86.7139 112.135 98.8555 114.346 108.709C115.808 115.219 119.657 119.921 125.893 122.818C126.69 123.186 128.1 123.551 130.125 123.911C132.211 124.286 134.047 122.871 133.631 120.702C133.469 119.846 133.708 119.715 134.35 120.31C137.389 123.139 141.042 124.575 145.309 124.618C145.876 124.622 146.456 124.624 147.05 124.624C147.356 124.624 147.472 124.773 147.401 125.07C146.319 129.492 146.123 133.432 147.645 137.937C149.844 144.438 155.299 148.818 162.169 149.811C163.78 150.043 165.355 149.918 166.965 149.864C167.223 149.856 167.459 149.924 167.673 150.066C172.304 153.085 176.284 155.155 179.612 156.277C182.354 157.2 185.349 157.978 188.598 158.612C188.675 158.627 188.747 158.663 188.803 158.718C188.86 158.773 188.899 158.843 188.915 158.92C188.932 158.997 188.925 159.077 188.896 159.151C188.867 159.224 188.817 159.287 188.752 159.331C187.679 160.092 186.688 160.922 185.781 161.822C182.235 165.348 178.792 169.114 175.452 173.119C173.966 174.902 172.706 176.768 171.221 178.521C170.107 179.841 169.065 181.221 168.095 182.664C165.951 185.853 163.865 188.997 161.837 192.095C161.808 192.137 161.769 192.171 161.723 192.193C161.677 192.214 161.626 192.223 161.576 192.217C161.526 192.212 161.479 192.192 161.44 192.161C161.401 192.13 161.372 192.089 161.355 192.042C159.398 186.792 157.169 181.517 154.669 176.215C153.619 173.993 152.371 171.794 150.925 169.619C148.821 166.469 144.887 166.291 141.529 165.994C140.056 165.863 138.58 165.782 137.102 165.75C125.176 165.504 116.894 165.247 112.254 164.977C92.0322 163.797 76.4853 163.079 65.6136 162.826C50.2212 162.469 34.8091 162.469 19.3771 162.826C15.0922 162.927 10.7954 164.496 11.2114 169.732C11.4769 173.08 12.1544 176.6 13.2439 180.292C19.2345 200.598 25.0051 218.571 30.5559 234.213C31.3225 236.365 32.2021 238.486 32.9034 240.638C34.6447 245.98 36.7009 251.216 38.5908 256.517C41.4751 264.6 44.6111 272.54 47.9986 280.337C48.0183 280.382 48.0259 280.432 48.0207 280.481C48.0155 280.53 47.9977 280.577 47.9689 280.617C47.9402 280.657 47.9015 280.689 47.8567 280.71C47.8119 280.73 47.7625 280.739 47.7133 280.735C46.7703 280.644 45.7581 280.612 44.6764 280.64C30.7896 280.961 16.786 281.563 2.6654 282.446C2.00375 282.49 1.33021 283.086 0.64478 284.235C-0.133753 285.549 1.75612 287.064 2.77237 287.124C6.85719 287.373 10.7201 287.466 14.3612 287.403C25.4073 287.213 36.5504 287.033 47.7906 286.862C48.4879 286.85 49.1931 286.884 49.9063 286.963C50.1083 286.987 50.2747 287.076 50.4055 287.231C51.5703 288.621 52.3964 291.201 53.163 292.823C54.3041 295.228 55.9721 296.456 58.167 296.508C63.7099 296.638 69.431 296.957 75.3304 297.464C79.0032 297.777 82.9454 298.027 87.157 298.213C109.796 299.2 129.267 299.693 145.571 299.693C159.933 299.689 173.659 299.814 186.75 300.067C189.325 300.119 191.504 299.606 193.287 298.528C193.457 298.429 193.64 298.39 193.834 298.409C197.459 298.794 201.671 299.022 206.469 299.093C229.723 299.443 251.172 299.616 273.719 299.901C274.33 299.909 274.94 299.883 275.55 299.824C277.071 299.681 278.587 299.907 280.12 299.877C286.342 299.747 292.398 299.836 298.686 299.039C300.73 298.778 301.687 297.239 301.972 295.384C302.238 293.641 302.394 291.821 302.442 289.923C302.513 287.126 301.105 285.687 298.217 285.608C298.177 285.608 298.159 285.588 298.163 285.549L298.175 285.394C298.187 285.204 298.29 285.109 298.484 285.109Z" stroke="#7F8080" stroke-width="2"/>
<path d="M81.4932 82.7499C81.6715 80.9017 80.1501 78.6849 78.8901 77.2111C74.8667 72.5042 68.371 68.0232 61.9585 69.188C59.7953 69.5803 58.3908 70.7867 57.745 72.8073C56.4672 76.7951 59.2901 80.6758 62.5172 82.845C67.0537 85.8958 71.7487 87.3518 76.6021 87.2131C78.5672 87.1577 80.0906 86.3534 81.1723 84.8003C81.6418 84.1228 81.4219 83.4928 81.4932 82.7499Z" stroke="#7F8080" stroke-width="2"/>
<path d="M63.6343 102.118C59.6644 102.594 54.9456 104.157 52.4258 107.431C50.1912 110.326 49.4127 114.284 52.6754 116.857C56.0332 119.513 62.1366 118.616 65.7322 117.065C69.2187 115.563 72.0575 113.636 74.2485 111.282C76.3642 109 76.9228 105.862 74.2663 103.729C71.5979 101.595 67.0337 101.708 63.6343 102.118Z" stroke="#7F8080" stroke-width="2"/>
<path d="M75.5503 131.477C72.0499 134.514 68.2761 140.552 71.5804 145.116C73.8149 148.206 78.2781 147.939 81.0713 145.793C84.649 143.054 87.1332 138.567 87.2521 134.199C87.3075 132.023 86.632 130.415 85.2255 129.373C82.2718 127.186 78.0285 129.325 75.5503 131.477Z" stroke="#7F8080" stroke-width="2"/>
<path d="M369.503 313.017C371.018 312.619 372.29 310.806 371.595 309.184C370.933 307.639 369.673 306.9 367.815 306.967C359.501 307.258 350.878 307.235 342.86 307.704C331.347 308.386 322.819 308.786 317.276 308.905C305.556 309.154 293.837 309.618 282.105 309.766C271.2 309.909 260.389 310.117 249.407 310.147C227.461 310.21 205.367 310.511 183.125 311.05C178.873 311.153 174.913 311.232 171.245 311.288C124.144 311.993 94.2352 312.516 81.5172 312.857C57.8561 313.495 36.1642 313.895 16.4414 314.057C15.6173 314.061 14.4386 314.222 12.9053 314.539C9.72579 315.192 9.66636 319.935 13.0241 319.941C26.9129 319.982 40.6056 320.113 54.328 319.768C84.2411 319.02 114.152 318.475 144.061 318.134C148.162 318.091 152.124 318.031 155.947 317.956C193.471 317.227 219.474 316.85 233.955 316.827C261.538 316.775 288.775 316.383 315.665 315.65C325.863 315.371 336.394 314.753 346.759 314.432C353.7 314.222 360.182 313.921 366.205 313.528C367.389 313.449 368.489 313.279 369.503 313.017Z" stroke="#7F8080" stroke-width="2"/>
<path d="M204.026 13.5973C203.337 12.3314 202.737 10.7744 201.661 9.81161C197.519 6.09129 190.833 7.33932 186.09 9.55012C184.67 10.2098 183.267 10.8576 181.966 11.749C175.864 15.9091 171.449 21.3074 168.719 27.9437C167.36 31.252 166.657 35.0059 166.609 39.2057C166.579 41.4462 162.74 41.6423 161.991 39.384C161.463 37.7794 160.375 36.5135 158.913 35.6161C153.814 32.4841 143.069 29.263 137.768 33.6193C137.724 33.6559 137.69 33.7035 137.67 33.7574C137.65 33.8112 137.644 33.8694 137.654 33.9261C137.663 33.9827 137.688 34.0358 137.725 34.08C137.761 34.1243 137.809 34.158 137.863 34.1779C138.941 34.5899 139.998 34.8673 141.036 35.0099C145.181 35.5884 149.42 36.2124 153.754 36.882C155.272 37.1157 156.795 37.5674 158.325 38.237C160.012 38.9739 160.48 40.212 159.727 41.9513C159.634 42.1645 159.495 42.3539 159.319 42.5052C159.143 42.6565 158.935 42.7658 158.711 42.8249C152.851 44.3939 147.736 47.3278 143.366 51.6265C140.454 54.495 138.499 57.1793 137.5 59.6793C136.151 63.043 134.166 64.5882 130.595 65.5747C123.946 67.4171 117.918 66.5038 112.51 62.835C112.15 62.5894 111.942 62.6845 111.886 63.1203C110.9 71.2622 118.198 72.8133 124.444 72.6291C125.2 72.6053 125.86 72.7499 126.423 73.0629C128.578 74.2674 128.974 75.8858 127.611 77.9183C126.185 80.0499 124.911 82.1577 123.79 84.2417C121.104 89.2417 119.576 94.6875 119.208 100.579C118.774 107.514 120.812 113.541 126.946 117.439C126.976 117.459 127.011 117.468 127.047 117.466C127.083 117.464 127.117 117.451 127.145 117.429C127.174 117.407 127.194 117.377 127.204 117.342C127.214 117.308 127.213 117.271 127.201 117.237C124.935 110.625 124.664 103.588 126.387 96.1277C127.33 92.0547 128.612 88.1918 130.232 84.5388C132.582 79.2337 135.357 74.1921 138.558 69.4139C141.276 65.3568 143.81 61.8584 146.159 58.9186C148.124 56.4661 150.466 53.9899 153.184 51.4898C155.193 49.6416 157.51 48.2806 159.793 46.8781C161.532 45.8083 163.568 45.2002 165.902 45.0536C170.068 44.7921 171.352 39.7821 173.574 37.0721C178.285 31.3391 183.697 27.1018 189.811 24.3601C200.199 19.7087 211.893 17.9654 224.892 19.1302C227.139 19.3323 229.757 19.8414 232.749 20.6576C238.399 22.2028 243.044 25.0059 246.685 29.0669C247.226 29.6731 248.046 30.1248 248.807 30.2258C256.871 31.2955 265.738 33.3875 271.42 39.5563C273.88 42.2247 275.556 44.7505 276.953 48.037C277.256 48.7442 277.785 49.392 278.415 49.8317C282.23 52.4744 286.475 53.7937 291.151 53.7898C293.203 53.7898 295.301 53.6531 297.444 53.3797C298.245 53.2767 299.009 53.0489 299.738 52.6963C300.085 52.5278 300.382 52.273 300.6 51.9564C300.819 51.6399 300.952 51.2724 300.986 50.8896C301.081 49.7763 301.04 48.6669 300.861 47.5615C300.754 46.884 300.38 46.6681 299.738 46.9137C294.811 48.7917 290.55 49.8971 285.142 48.9522C284.328 48.8095 283.775 48.3698 283.49 47.5972C279.918 37.9339 271.872 28.4132 261.495 26.6362C258.056 26.0459 254.431 25.9013 250.619 26.2024C248.724 26.3569 248.587 23.635 249.11 22.4643C249.132 22.4182 249.14 22.3667 249.133 22.3161C249.127 22.2655 249.105 22.2179 249.072 22.1794C249.038 22.1408 248.994 22.1129 248.945 22.0991C248.896 22.0853 248.843 22.0862 248.795 22.1017C247.432 22.5217 246.338 22.0661 245.514 20.7348C244.06 18.3695 242.022 16.5312 239.399 15.2197C236.8 13.9242 234.375 13.007 232.125 12.4681C226.079 11.022 219.924 10.9269 213.66 12.1829C212.503 12.4127 211.386 12.7653 210.308 13.2407C208.799 13.9063 205.185 15.7368 204.026 13.5973Z" stroke="#7F8080" stroke-width="2"/>
<path d="M263.287 44.3247C263.42 43.8038 263.341 43.2516 263.066 42.7895C262.792 42.3273 262.345 41.9931 261.824 41.8604L255.593 40.272C255.335 40.2063 255.067 40.192 254.804 40.2299C254.54 40.2679 254.287 40.3574 254.058 40.4933C253.829 40.6291 253.629 40.8087 253.47 41.0218C253.31 41.2349 253.195 41.4774 253.129 41.7352L253.082 41.9195C252.949 42.4403 253.029 42.9926 253.303 43.4547C253.577 43.9169 254.024 44.2511 254.545 44.3839L260.776 45.9722C261.034 46.0379 261.302 46.0522 261.566 46.0142C261.829 45.9763 262.082 45.8868 262.311 45.751C262.54 45.6151 262.74 45.4355 262.899 45.2224C263.059 45.0093 263.175 44.7669 263.24 44.509L263.287 44.3247Z" stroke="#7F8080" stroke-width="2"/>
<path d="M245.187 53.3797C242.842 51.9256 240.381 50.7826 237.806 49.9506C235.678 49.2671 234.365 51.5968 236.261 53.142C238.483 54.9526 240.845 56.2541 243.345 57.0465C245.882 57.8488 247.796 55.0021 245.187 53.3797Z" stroke="#7F8080" stroke-width="2"/>
<path d="M168.802 55.4775C166.074 62.4962 165.682 70.6084 166.912 77.9242C167.597 81.9853 168.927 85.557 170.9 88.6394C173.832 93.2116 177.899 96.718 183.101 99.1585C183.445 99.317 183.491 99.2576 183.237 98.9803C181.775 97.3836 180.359 95.7572 178.988 94.101C172.445 86.185 170.383 74.8517 171.345 64.5584C171.637 61.4086 172.552 58.3658 173.2 55.2101C173.485 53.7996 172.948 53.031 171.589 52.9042C170.014 52.7556 169.283 54.2354 168.802 55.4775Z" stroke="#7F8080" stroke-width="2"/>
<path d="M220.963 58.3599C219.471 57.2961 217.201 54.176 215.169 55.4775C213.63 56.4641 214.664 58.4134 215.62 59.3583C219.345 63.043 223.703 65.9927 228.695 68.2074C229.658 68.6314 230.5 68.463 231.221 67.7023C231.367 67.5438 231.472 67.3615 231.536 67.1555C231.936 65.7648 231.494 64.7367 230.21 64.0711C227.227 62.5299 224.145 60.6261 220.963 58.3599Z" stroke="#7F8080" stroke-width="2"/>
<path d="M259.89 95.1114C259.351 97.3499 258.509 99.3943 257.364 101.245C256.976 101.867 257.049 101.928 257.584 101.429C260.631 98.5802 262.883 95.1253 264.341 91.0642C265.518 87.7897 265.714 84.2773 265.655 80.8661C265.619 78.9108 264.781 60.2855 259.646 64.0177C259.131 64.3901 258.911 64.919 258.987 65.6044C259.302 68.4155 260.205 70.9947 260.633 73.7582C261.778 81.2028 261.53 88.3206 259.89 95.1114Z" stroke="#7F8080" stroke-width="2"/>
<path d="M249.734 107.919C248.735 105.755 250.34 103.55 251.522 101.779C252.144 100.852 251.944 100.609 250.922 101.048C250.304 101.314 249.658 101.494 248.985 101.589C243.363 102.37 237.988 102.033 232.861 100.579C232.647 100.519 232.499 100.595 232.416 100.805C231.215 103.854 226.734 104.715 223.804 105.155C210.718 107.104 197.293 102.445 188.063 93.1086C187.651 92.6886 187.578 92.7421 187.843 93.269C189.408 96.3396 191.49 98.9189 194.089 101.007C194.842 101.613 195.452 102.267 195.92 102.968C196.558 103.931 196.328 104.997 195.23 106.165C194.065 107.413 190.708 106.956 189.168 106.676C184.327 105.805 179.816 103.911 175.636 100.995C168.485 96.0028 164.117 89.4556 162.532 81.3533C162.413 80.7511 162.227 80.7293 161.973 81.288C157.869 90.353 155.305 99.7667 154.283 109.529C154.259 109.771 154.299 109.999 154.402 110.213C155.951 113.434 157.577 116.688 159.281 119.977C160.571 122.467 161.771 125.135 162.36 127.833C162.924 130.413 162.924 133.17 163.875 135.649C167.197 144.337 176.147 148.735 184.58 151.255C187.187 152.035 189.838 152.622 192.532 153.014C202.544 154.48 212.447 154.417 222.241 152.824C232.796 151.112 242.881 147.178 251.51 140.498C254.965 137.828 257.727 134.771 259.795 131.328C261.061 129.218 262.416 128.481 264.864 128.945C268.002 129.545 271.61 128.618 274.575 127.756C278.03 126.75 281.113 124.939 283.823 122.324C291.982 114.444 291.554 99.7231 281.154 93.9465C280.286 93.4632 279.373 93.2255 278.414 93.2334C276.412 93.2571 273.957 92.5618 272.299 94.0595C271.614 94.6815 270.853 95.0638 270.017 95.2065C269.759 95.254 269.528 95.1946 269.322 95.0282L268.739 94.5527C268.521 94.3784 268.357 94.42 268.246 94.6775C265.637 100.621 261.667 105.678 255.873 108.709C254.143 109.612 250.75 110.111 249.734 107.919Z" stroke="#7F8080" stroke-width="2"/>
<path d="M157.32 131.506C157.15 128.626 156.28 125.9 154.711 123.329C154.676 123.271 154.628 123.222 154.57 123.187C154.513 123.151 154.447 123.13 154.38 123.125C154.312 123.12 154.243 123.131 154.18 123.157C154.117 123.183 154.061 123.223 154.016 123.275C153.002 124.484 152.276 126.021 151.841 127.887C151.1 131.049 151.488 134.161 153.006 137.223C154.689 140.635 157.389 142.879 161.106 143.957C161.625 144.107 161.73 143.961 161.421 143.517C158.956 140.015 157.59 136.011 157.32 131.506Z" stroke="#7F8080" stroke-width="2"/>
<path d="M333.904 271.595C333.896 272.086 333.977 272.569 334.148 273.045C334.19 273.165 334.204 273.293 334.189 273.42C334.173 273.547 334.129 273.669 334.058 273.776C333.135 275.17 331.978 276.08 330.588 276.504C329.165 276.931 327.755 277.417 326.356 277.96C326.273 277.991 326.227 278.049 326.22 278.132C326.212 278.243 326.348 278.31 326.63 278.334C326.717 278.338 326.804 278.338 326.891 278.334C328.345 278.239 329.77 278.243 331.164 278.346C332.192 278.417 333.096 278.084 334.148 278.191C334.908 278.267 335.697 278.296 336.513 278.28C340.487 278.209 344.358 278.217 348.125 278.304C348.156 278.305 348.187 278.3 348.215 278.288C348.243 278.276 348.269 278.258 348.29 278.236C348.311 278.213 348.326 278.186 348.336 278.157C348.346 278.128 348.349 278.097 348.345 278.067C346.891 266.303 345.055 255.031 342.836 244.251C342.543 242.829 342.276 241.468 342.034 240.168C339.36 226 335.199 209.906 329.779 195.191C325.14 182.604 319.248 171.099 312.105 160.675C308.896 155.991 305.377 151.691 301.55 147.772C299.676 145.851 297.4 143.792 294.722 141.598C290.07 137.782 285.144 134.801 279.941 132.653C279.556 132.497 279.127 132.497 278.747 132.653C274.274 134.484 269.624 135.286 264.799 135.06C264.679 135.055 264.559 135.083 264.453 135.142C264.348 135.2 264.259 135.287 264.198 135.393L262.879 137.681C262.806 137.807 262.767 137.95 262.765 138.096C262.763 138.243 262.798 138.388 262.867 138.519C263.347 139.434 263.612 140.365 263.664 141.312C263.885 145.373 262.824 149.428 260.478 153.478C257.332 158.902 253.626 163.222 249.359 166.439C244.759 169.906 239.638 172.658 233.996 174.694C227.298 177.107 218.152 177.636 212.084 173.66C207.948 170.95 204.471 165.762 206.225 160.781C206.243 160.733 206.248 160.68 206.241 160.628C206.235 160.576 206.215 160.527 206.185 160.484C206.155 160.441 206.114 160.406 206.068 160.381C206.021 160.356 205.969 160.343 205.915 160.342C203.467 160.294 200.646 160.189 197.453 160.027C196.672 159.987 196.005 160.161 195.45 160.55C192.835 162.38 190.04 164.979 187.064 168.347C178.566 177.969 170.983 188.066 164.736 199.328C164.67 199.447 164.63 199.579 164.619 199.715C164.609 199.85 164.629 199.986 164.677 200.112C167.411 207.386 170.281 214.577 172.855 221.881C174.911 227.735 177.288 233.916 179.089 239.508C181.64 247.444 184.325 255.82 187.142 264.635C187.158 264.685 187.187 264.729 187.225 264.764C187.264 264.799 187.31 264.824 187.361 264.836C187.411 264.848 187.463 264.847 187.512 264.832C187.561 264.818 187.605 264.791 187.641 264.754C189.974 262.381 192.498 259.966 195.212 257.51C197.435 255.501 199.735 254.764 202.528 253.819C207.552 252.123 212.203 250.788 216.482 249.814C216.696 249.766 216.775 249.635 216.72 249.421C215.805 245.737 217.088 243.282 219.846 241.149C220.868 240.356 221.799 239.754 222.639 239.342C231.609 234.948 240.252 230.566 248.568 226.196C250.226 225.322 252.283 224.663 253.037 222.713C255.732 215.768 258.263 210.178 260.633 205.942C267.746 193.218 278.052 182.771 290.021 174.147C292.125 172.626 296.154 169.767 298.656 170.16C301.188 170.552 301.616 173.618 299.351 174.896C297.343 176.029 295.314 177.25 293.266 178.557C291.988 179.371 290.942 180.417 289.664 181.225C288.701 181.84 287.786 182.523 286.919 183.276C282.957 186.719 279.823 189.633 277.517 192.018C269.652 200.164 263.475 209.764 258.986 220.818C258.899 221.032 258.959 221.085 259.165 220.978C261.629 219.679 264.147 218.516 266.718 217.49C269.856 216.242 273.244 215.635 276.881 215.671C281.405 215.711 285.787 215.762 290.027 215.826C292.436 215.861 295.161 216.109 298.204 216.568C300.076 216.848 302.358 218.226 301.497 220.419C301.144 221.307 300.641 221.988 299.987 222.464C299.802 222.595 299.579 222.664 299.351 222.66C297.691 222.612 295.956 222.482 294.145 222.268C287.901 221.527 280.31 221.477 271.372 222.119C270.369 222.19 269.44 222.428 268.584 222.832C262.412 225.752 257.2 228.389 252.948 230.742C249.937 232.41 246.993 233.914 244.117 235.253C243.444 235.57 242.784 235.939 242.138 236.359C240.599 237.351 238.774 237.832 237.128 238.664C232.932 240.772 228.669 242.844 224.339 244.881C223.76 245.15 223.253 245.503 222.817 245.939C222.682 246.074 222.59 246.246 222.554 246.433C222.517 246.621 222.538 246.815 222.612 246.991C222.687 247.167 222.813 247.316 222.973 247.42C223.134 247.524 223.322 247.577 223.513 247.573C225.537 247.529 227.391 248.302 229.075 249.891C234.349 254.879 238.406 260.854 241.247 267.815C242.249 270.279 242.853 272.89 243.059 275.648C243.079 275.901 243.216 276.034 243.469 276.046C260.827 276.83 278.194 277.593 295.572 278.334C298.036 278.441 300.732 278.253 303.66 277.769C312.664 276.284 320.895 273.574 329.619 269.901C330.364 269.588 331.041 269.469 331.651 269.544C332.703 269.675 333.922 270.382 333.904 271.595Z" stroke="#7F8080" stroke-width="2"/>
<path d="M225.855 158.315C221.219 159.23 216.275 160.045 211.473 160.27C211.373 160.275 211.277 160.314 211.202 160.379C211.126 160.445 211.075 160.535 211.057 160.633C210.07 165.637 213.992 169.369 218.58 170.255C223.68 171.241 228.943 170.631 234.371 168.424C236.407 167.592 238.291 166.711 240.023 165.779C242.875 164.238 245.58 162.333 248.135 160.062C252.624 156.069 255.869 151.217 257.87 145.508C258.151 144.7 258.307 143.878 258.339 143.042C258.341 142.993 258.329 142.944 258.303 142.902C258.278 142.86 258.241 142.826 258.196 142.806C258.152 142.785 258.102 142.777 258.054 142.784C258.005 142.791 257.96 142.813 257.923 142.845C254.476 146.047 250.754 148.697 246.756 150.797C239.886 154.411 232.919 156.916 225.855 158.315Z" stroke="#7F8080" stroke-width="2"/>
<path d="M23.6149 175.794C24.7401 175.52 25.9089 175.36 27.1212 175.312C34.9818 175.011 42.6661 174.934 50.1741 175.08C61.2598 175.294 72.9378 175.599 85.2081 175.996C97.7676 176.404 116.096 177.311 140.193 178.717C142.689 178.864 143.895 180.197 143.812 182.717C143.808 182.915 143.873 183.09 144.008 183.24C144.454 183.721 144.775 184.072 145.06 184.684C148.424 191.859 151.797 199.879 155.181 208.742C162.039 226.713 168.036 244.269 173.17 261.408C175.524 269.273 177.77 276.599 179.91 283.386C180.96 286.725 182.13 289.949 183.422 293.055C183.588 293.447 183.884 293.663 184.308 293.703C185.908 293.849 187.327 293.814 188.563 293.596C189.01 293.516 189.159 293.263 189.008 292.835C184.337 279.527 179.882 266.056 175.643 252.423C175.274 251.242 174.9 250.095 174.519 248.982C174.088 247.714 173.662 246.426 173.242 245.119C172.826 243.819 172.398 242.525 171.958 241.238C164.799 220.247 157.146 199.918 149 180.251C148.388 178.777 146.445 173.969 144.632 173.684C141.637 173.216 138.184 172.967 134.273 172.935C127.189 172.876 117.526 172.566 105.283 172.008C93.1717 171.455 81.4105 170.659 69.4888 170.29C52.2819 169.763 35.0591 169.538 17.8204 169.613C17.1311 169.617 16.8438 169.958 16.9587 170.635C17.236 172.267 17.662 174.038 18.2365 175.948C19.5439 180.302 20.8593 184.472 22.1826 188.458C24.8569 196.517 27.5471 204.577 30.2532 212.64C30.7702 214.167 31.3883 215.493 31.8875 216.955C36.7251 231.063 42.5294 247.052 49.3005 264.921C49.8294 266.317 50.5188 267.607 51.0358 268.986C53.5121 275.571 56.1547 282.211 58.9638 288.907C59.1698 289.394 59.5363 289.651 60.0632 289.679C67.2226 290.083 74.3918 290.515 81.571 290.975C85.5171 291.228 89.907 291.417 94.7406 291.539C115.636 292.058 136.532 292.346 157.427 292.401C163.769 292.419 170.11 292.27 176.457 292.472C176.512 292.474 176.567 292.462 176.617 292.437C176.667 292.412 176.71 292.376 176.742 292.331C176.774 292.285 176.795 292.233 176.802 292.178C176.81 292.123 176.803 292.067 176.784 292.015C175.896 289.657 175.13 287.421 174.484 285.305C171.873 276.783 169.048 267.504 166.009 257.468C159.519 236.046 151.736 213.744 142.659 190.562C141.914 188.66 141.492 186.739 141.393 184.797C141.377 184.524 141.237 184.415 140.971 184.47C140.222 184.619 139.539 184.631 138.778 184.595C123.097 183.779 108.562 183 95.1745 182.26C91.8939 182.077 88.136 181.915 83.9006 181.772C80.0575 181.645 76.2896 181.495 72.597 181.321C57.1056 180.592 41.4954 180.17 25.7662 180.055C24.9184 180.047 24.0685 179.87 23.2167 179.526C21.517 178.842 21.8201 176.227 23.6149 175.794Z" stroke="#7F8080" stroke-width="2"/>
<path d="M367.756 221.014C365.949 222.404 364.249 223.825 363.019 225.715C361.706 227.735 363.708 229.97 365.883 228.377C367.484 227.2 369.091 225.79 370.703 224.146C372.819 221.988 369.83 219.409 367.756 221.014Z" stroke="#7F8080" stroke-width="2"/>
<path d="M375.389 235.353C375.363 235.061 375.243 234.781 375.037 234.528C374.831 234.275 374.543 234.055 374.189 233.879C373.835 233.704 373.422 233.577 372.974 233.505C372.526 233.433 372.051 233.418 371.577 233.462C371.103 233.505 370.639 233.605 370.211 233.756C369.783 233.908 369.4 234.107 369.083 234.344C368.767 234.581 368.523 234.85 368.366 235.135C368.209 235.421 368.142 235.718 368.169 236.01C368.195 236.301 368.315 236.581 368.521 236.834C368.727 237.087 369.015 237.307 369.369 237.483C369.723 237.658 370.136 237.786 370.584 237.857C371.032 237.929 371.507 237.944 371.981 237.901C372.455 237.857 372.919 237.757 373.347 237.606C373.775 237.454 374.158 237.255 374.475 237.018C374.791 236.782 375.035 236.513 375.192 236.227C375.349 235.941 375.416 235.644 375.389 235.353Z" stroke="#7F8080" stroke-width="2"/>
<path d="M225.914 271.28C227.174 271.446 227.216 272.765 228.476 272.92C231.277 273.253 233.941 273.463 236.469 273.55C236.542 273.552 236.615 273.537 236.683 273.508C236.75 273.478 236.81 273.434 236.858 273.379C236.905 273.324 236.94 273.259 236.959 273.188C236.978 273.118 236.981 273.045 236.968 272.973C236.786 271.927 236.487 270.909 236.071 269.919C233.317 263.393 229.678 257.951 225.153 253.593C225.002 253.445 224.809 253.347 224.599 253.313C224.39 253.279 224.174 253.31 223.983 253.403C222.776 253.974 221.439 253.896 220.161 254.199C213.989 255.649 207.661 257.581 201.179 259.994C200.161 260.374 199.27 260.923 198.505 261.64C195.656 264.322 192.851 266.997 190.09 269.663C189.064 270.65 189.177 271.484 190.429 272.165C190.789 272.363 191.201 272.446 191.665 272.415C193.087 272.324 194.256 271.735 195.171 270.65C196.78 268.744 198.634 267.042 200.734 265.545C201.827 264.764 202.887 264.891 203.913 265.925C204.674 266.692 204.377 267.755 203.771 268.492C202.503 270.018 201.08 271.486 199.504 272.896C198.901 273.435 198.996 273.791 199.789 273.966L200.318 274.079C200.678 274.158 201.053 274.149 201.411 274.054C201.768 273.959 202.098 273.78 202.374 273.532C203.943 272.125 205.567 270.616 207.247 269.003C208.578 267.732 210.962 265.812 212.643 267.322C214.569 269.045 210.795 272.409 209.684 273.52C209.55 273.651 209.471 273.828 209.461 274.015C209.451 274.202 209.511 274.386 209.63 274.53C210.538 275.644 211.629 275.778 212.905 274.935C214.311 274.003 215.728 273.162 217.154 272.409C220.12 270.852 222.651 270.846 225.914 271.28Z" stroke="#7F8080" stroke-width="2"/>
<path d="M265.149 288.746C265.351 288.445 265.5 288.122 265.595 287.777C265.679 287.459 265.869 287.179 266.133 286.981C266.397 286.784 266.721 286.681 267.051 286.69L276.715 286.922C276.825 286.926 276.893 286.872 276.917 286.761C276.94 286.65 276.905 286.585 276.81 286.565C274.627 286.066 272.64 285.701 270.849 285.472C267.414 285.028 265.678 284.804 265.643 284.8C259.68 283.865 253.481 282.823 247.047 281.674C242.309 280.83 233.881 279.845 221.766 278.72C221.048 278.653 220.395 278.459 219.804 278.138C219.636 278.047 219.449 277.997 219.257 277.991C219.065 277.985 218.874 278.023 218.699 278.102C216.785 278.99 214.995 279.744 213.327 280.366C211.686 280.985 207.211 280.289 206.183 278.411C206.138 278.328 206.077 278.255 206.002 278.197C205.928 278.138 205.843 278.095 205.752 278.071C205.661 278.047 205.566 278.041 205.472 278.054C205.379 278.068 205.289 278.1 205.208 278.15C203.889 278.952 202.582 279.653 200.971 279.552C199.382 279.445 197.807 279.128 196.246 278.601C196.013 278.522 195.816 278.385 195.658 278.191L195.177 277.597C195.006 277.391 194.79 277.304 194.529 277.336L192.003 277.645C191.948 277.651 191.896 277.67 191.849 277.701C191.803 277.731 191.765 277.772 191.738 277.82C191.711 277.868 191.695 277.922 191.693 277.977C191.69 278.033 191.701 278.088 191.724 278.138L192.478 279.796C192.581 280.03 192.762 280.149 193.019 280.153C196.74 280.212 200.226 280.408 203.479 280.741C210.444 281.454 217.082 282.013 223.852 282.28C230.644 282.548 237.098 282.993 243.939 283.855C249.014 284.491 254.125 284.604 259.414 285.567C261.013 285.858 264.65 286.832 263.723 289.115C262.814 291.367 257.334 290.577 255.682 290.077C254.807 289.812 253.824 289.699 252.735 289.739C249.712 289.85 246.589 289.711 243.368 289.323C241.284 289.073 239.242 288.861 237.241 288.687C227.205 287.791 216.926 286.827 206.403 285.792C202.487 285.412 198.499 285.466 194.689 284.663C194.629 284.65 194.567 284.653 194.509 284.672C194.451 284.692 194.399 284.727 194.358 284.773C194.318 284.82 194.29 284.877 194.278 284.938C194.266 284.999 194.271 285.062 194.291 285.121L196.621 291.842C196.654 291.938 196.716 292.021 196.798 292.08C196.88 292.138 196.978 292.17 197.078 292.169C199.735 292.157 202.391 292.354 205.054 292.389C233.339 292.805 261.835 293.019 290.544 293.031C291.665 293.031 292.85 292.995 294.098 292.924C295.968 292.817 296.023 292.441 294.264 291.795C293.153 291.391 291.833 291.058 290.627 291.016C285.938 290.844 281.748 290.511 276.786 290.933C273.559 291.207 268.662 291.314 265.482 289.911C264.908 289.653 264.797 289.265 265.149 288.746Z" stroke="#7F8080" stroke-width="2"/>
<path d="M62.975 75.8026C65.3938 79.5526 71.2239 81.6445 75.3245 81.8407C75.3587 81.8415 75.3925 81.8328 75.4221 81.8155C75.4516 81.7982 75.4758 81.7731 75.4918 81.7428C75.5079 81.7126 75.5152 81.6785 75.5129 81.6443C75.5107 81.6102 75.4989 81.5773 75.479 81.5494C72.9117 78.0966 68.8823 75.1548 64.5618 74.4773C64.1061 74.406 63.6941 74.4535 63.3256 74.6199C63.2183 74.6682 63.1227 74.739 63.0452 74.8275C62.9678 74.916 62.9105 75.02 62.8771 75.1324C62.8438 75.2448 62.8353 75.363 62.8522 75.4786C62.8691 75.5943 62.911 75.7049 62.975 75.8026Z" stroke="#7F8080" stroke-width="2"/>
<path d="M215.295 124.574C215.883 124.442 216.427 124.141 216.896 123.686C217.365 123.231 217.749 122.633 218.027 121.924C218.306 121.216 218.472 120.411 218.517 119.557C218.562 118.702 218.486 117.814 218.291 116.944C218.096 116.073 217.788 115.237 217.383 114.483C216.978 113.729 216.485 113.072 215.932 112.549C215.378 112.026 214.776 111.648 214.158 111.437C213.54 111.225 212.92 111.184 212.332 111.315C211.744 111.447 211.2 111.748 210.731 112.203C210.262 112.657 209.878 113.256 209.6 113.964C209.321 114.673 209.155 115.478 209.11 116.332C209.065 117.187 209.141 118.075 209.336 118.945C209.531 119.816 209.839 120.652 210.244 121.406C210.649 122.16 211.142 122.817 211.695 123.34C212.249 123.862 212.851 124.24 213.469 124.452C214.087 124.664 214.707 124.705 215.295 124.574Z" stroke="#7F8080" stroke-width="2"/>
<path d="M174.061 125.694C174.43 126.677 175.121 127.4 176.135 127.863C178.081 128.747 179.767 128.394 181.193 126.805C182.905 124.892 182.132 122.045 181.496 119.799C181.116 118.455 180.418 117.283 179.404 116.28C177.389 114.283 174.477 114.955 173.437 117.588C172.415 120.179 173.099 123.15 174.061 125.694Z" stroke="#7F8080" stroke-width="2"/>
<path d="M200.743 134.349C200.704 133.833 200.462 133.354 200.07 133.017C199.679 132.68 199.169 132.512 198.653 132.551L193.248 132.957C192.733 132.996 192.254 133.238 191.917 133.63C191.58 134.022 191.412 134.532 191.451 135.047L191.465 135.237C191.504 135.752 191.746 136.231 192.138 136.569C192.53 136.906 193.04 137.073 193.555 137.035L198.96 136.628C199.475 136.589 199.954 136.347 200.291 135.956C200.629 135.564 200.796 135.054 200.757 134.538L200.743 134.349Z" stroke="#7F8080" stroke-width="2"/>
<path d="M56.1999 112.566C59.7835 114.711 66.9389 110.92 69.7737 108.305C69.848 108.238 69.895 108.145 69.906 108.046C69.9169 107.946 69.891 107.846 69.8331 107.764C69.7222 107.606 69.5716 107.516 69.3814 107.497C65.3164 107.075 58.3156 107.794 55.9562 111.562C55.9049 111.643 55.8706 111.733 55.8551 111.828C55.8396 111.923 55.8433 112.02 55.866 112.113C55.8887 112.207 55.9299 112.295 55.9873 112.373C56.0446 112.451 56.1169 112.516 56.1999 112.566Z" stroke="#7F8080" stroke-width="2"/>
<path d="M81.214 134.21C79.1221 135.149 75.5028 138.388 75.6514 140.932C75.6603 141.088 75.7042 141.239 75.7799 141.375C75.8555 141.512 75.9611 141.629 76.0885 141.719C76.216 141.809 76.3621 141.868 76.5159 141.894C76.6697 141.919 76.8272 141.909 76.9767 141.865C79.5559 141.098 81.4518 136.813 81.7549 134.62C81.7635 134.551 81.754 134.481 81.7271 134.417C81.7002 134.353 81.6571 134.297 81.602 134.255C81.5469 134.214 81.482 134.187 81.4138 134.18C81.3456 134.172 81.2767 134.182 81.214 134.21Z" stroke="#7F8080" stroke-width="2"/>
<path d="M237.378 244.857C237.164 245.697 237.325 246.479 237.86 247.204C239.563 249.518 241.128 251.798 242.555 254.045C245.744 259.077 248.181 264.633 249.865 270.715C250.356 272.498 251.531 273.259 253.389 272.997C253.432 272.993 253.472 272.981 253.508 272.961C255.144 272.149 255.724 270.869 255.249 269.122C253.395 262.359 250.401 255.996 246.269 250.033C245.144 248.417 243.741 246.741 242.061 245.006C241.047 243.956 239.944 243.496 238.751 243.627C238.41 243.662 238.111 243.805 237.854 244.055C237.616 244.281 237.458 244.548 237.378 244.857Z" stroke="#7F8080" stroke-width="2"/>
<path d="M265.981 253.041C266.724 254.835 267.271 256.624 268.424 258.211C270.772 261.462 274.658 258.71 273.095 255.156C272.477 253.754 268.525 245.166 265.797 248.744C264.888 249.938 265.458 251.781 265.981 253.041Z" stroke="#7F8080" stroke-width="2"/>
<path d="M262.79 258.746C261.334 255.477 260.128 252.173 258.024 249.338C256.514 247.312 253.638 248.173 254.511 250.984C255.557 254.354 256.378 258.062 257.964 261.147C258.773 262.716 261.156 263.465 262.41 261.842C263.155 260.879 263.281 259.847 262.79 258.746Z" stroke="#7F8080" stroke-width="2"/>
<path d="M298.448 285.2C298.254 285.2 298.151 285.295 298.139 285.485L298.127 285.639C298.123 285.679 298.141 285.699 298.18 285.699C301.07 285.778 302.479 287.216 302.407 290.013C302.36 291.91 302.203 293.731 301.938 295.474C301.652 297.328 300.695 298.867 298.65 299.128C292.36 299.925 286.302 299.836 280.077 299.966C278.544 299.996 277.028 299.77 275.506 299.913C274.895 299.972 274.285 299.998 273.675 299.99C251.119 299.705 229.663 299.532 206.4 299.182C201.6 299.111 197.387 298.883 193.761 298.499C193.566 298.479 193.384 298.518 193.214 298.617C191.43 299.695 189.25 300.208 186.674 300.156C173.579 299.903 159.848 299.778 145.48 299.782C129.171 299.782 109.693 299.289 87.046 298.302C82.8329 298.116 78.8894 297.867 75.2153 297.554C69.3138 297.047 63.5906 296.728 58.0458 296.597C55.8501 296.545 54.1815 295.317 53.0401 292.913C52.2732 291.29 51.4468 288.712 50.2815 287.321C50.1508 287.167 49.9843 287.077 49.7822 287.054C49.0687 286.974 48.3633 286.941 47.6657 286.953C36.4215 287.123 25.2745 287.303 14.2245 287.493C10.5822 287.557 6.71785 287.464 2.63159 287.214C1.61498 287.155 -0.275565 285.639 0.503243 284.326C1.18891 283.177 1.86269 282.581 2.52458 282.537C16.6501 281.654 30.6588 281.052 44.5505 280.731C45.6325 280.703 46.6451 280.735 47.5884 280.826C47.6376 280.83 47.6871 280.821 47.7319 280.801C47.7767 280.78 47.8154 280.748 47.8441 280.708C47.8729 280.668 47.8907 280.621 47.8959 280.572C47.9011 280.523 47.8935 280.473 47.8738 280.428C44.4851 272.632 41.3481 264.693 38.4627 256.611C36.5722 251.311 34.5152 246.075 32.7732 240.733C32.0717 238.582 31.1918 236.461 30.4249 234.31C24.8722 218.669 19.0995 200.698 13.1068 180.395C12.0169 176.703 11.3392 173.183 11.0736 169.835C10.6575 164.6 14.9558 163.031 19.2422 162.93C34.6796 162.574 50.0972 162.574 65.4951 162.93C76.3706 163.184 91.923 163.901 112.152 165.081C116.793 165.351 125.079 165.608 137.009 165.854C138.487 165.886 139.963 165.967 141.438 166.098C144.797 166.395 148.732 166.573 150.837 169.722C152.284 171.897 153.532 174.096 154.582 176.318C157.083 181.619 159.313 186.894 161.271 192.143C161.287 192.19 161.316 192.231 161.355 192.262C161.394 192.293 161.441 192.313 161.491 192.318C161.542 192.324 161.592 192.315 161.639 192.294C161.685 192.272 161.724 192.238 161.752 192.196C163.781 189.098 165.868 185.955 168.012 182.766C168.983 181.324 170.026 179.943 171.139 178.624C172.626 176.871 173.886 175.005 175.372 173.222C178.714 169.217 182.158 165.452 185.705 161.926C186.613 161.027 187.603 160.197 188.677 159.436C188.742 159.391 188.792 159.329 188.821 159.255C188.85 159.182 188.857 159.102 188.84 159.025C188.824 158.948 188.785 158.878 188.728 158.823C188.672 158.768 188.6 158.731 188.523 158.717C185.273 158.083 182.277 157.305 179.534 156.382C176.205 155.261 172.223 153.191 167.59 150.172C167.376 150.03 167.14 149.962 166.883 149.97C165.272 150.024 163.696 150.148 162.085 149.917C155.213 148.924 149.755 144.545 147.555 138.044C146.033 133.54 146.229 129.6 147.311 125.179C147.383 124.882 147.266 124.733 146.961 124.733C146.366 124.733 145.786 124.731 145.219 124.727C140.95 124.684 137.296 123.247 134.256 120.419C133.614 119.825 133.374 119.955 133.537 120.811C133.953 122.98 132.116 124.394 130.029 124.02C128.004 123.659 126.593 123.295 125.796 122.927C119.558 120.031 115.707 115.328 114.245 108.82C112.033 98.9671 115.273 86.827 120.755 78.5374C120.784 78.4937 120.801 78.4431 120.805 78.3907C120.808 78.3383 120.798 78.2858 120.775 78.2385C120.753 78.1911 120.718 78.1505 120.675 78.1206C120.631 78.0908 120.581 78.0726 120.529 78.068C112.616 77.343 105.613 73.2369 106.368 64.1748C106.57 61.7206 107.664 58.9575 109.602 57.359C110.981 56.218 112.961 56.5686 114.298 57.6204C118.091 60.6193 122.74 61.7523 128.246 61.0194C129.526 60.8491 130.709 60.447 131.795 59.8132C132.084 59.6459 132.296 59.3726 132.383 59.0525C132.748 57.7531 133.259 56.5548 133.917 55.4574C137.318 49.7647 141.862 45.3159 147.549 42.111C148.195 41.7465 148.148 41.5346 147.407 41.4751C143.079 41.1067 139.177 40.3164 135.701 39.1042C132.962 38.1494 131.735 36.6143 132.021 34.4988C132.449 31.3078 136.111 28.6516 139.137 27.7603C146.461 25.5972 155.236 27.4453 161.633 31.7594C161.665 31.7816 161.701 31.7954 161.739 31.7997C161.777 31.8039 161.816 31.7984 161.852 31.7837C161.888 31.769 161.92 31.7455 161.945 31.7153C161.97 31.6852 161.988 31.6493 161.996 31.6109C162.547 28.9566 163.403 26.451 164.564 24.0938C169.534 14.0097 177.81 6.03512 188.535 2.81438C191.309 1.98245 194.294 1.73089 197.488 2.0597C201.531 2.46972 205.419 4.73374 207.44 8.25754C207.575 8.49127 207.767 8.55861 208.017 8.45958C218.254 4.56735 231.904 5.36958 241.654 10.48C244.419 11.9359 252.32 17.3196 249.793 21.3901C249.571 21.7427 249.654 21.8457 250.043 21.6991C251.303 21.2118 252.522 20.9088 253.86 20.7958C261.644 20.1184 268.655 22.2062 274.893 27.0591C280.898 31.7258 285.127 37.4284 287.58 44.167C287.648 44.3611 287.784 44.4701 287.99 44.4938C291.748 44.8979 295.184 43.6679 298.769 42.7349C301.944 41.9109 304.102 42.8993 305.243 45.7001C307.954 52.3555 303.941 58.69 297.901 61.7206C296.561 62.3901 295.325 62.9903 294.191 63.5212C293.961 63.6281 293.874 63.8064 293.93 64.056C296.218 73.9618 292.247 81.8829 285.767 89.2039C285.726 89.2492 285.696 89.3028 285.677 89.3609C285.659 89.4191 285.654 89.4805 285.662 89.541C285.67 89.6014 285.691 89.6594 285.723 89.711C285.756 89.7625 285.799 89.8065 285.85 89.8397C289.399 92.1988 292.526 96.3109 294.025 100.37C297.764 110.525 294.875 121.928 286.29 128.673C286.246 128.706 286.211 128.751 286.189 128.801C286.168 128.852 286.159 128.908 286.165 128.963C286.171 129.018 286.191 129.071 286.224 129.115C286.256 129.16 286.299 129.196 286.35 129.22C288.961 130.495 291.581 132.08 294.209 133.973C301.692 139.369 308.366 145.937 314.232 153.678C316.325 156.439 318.392 159.238 320.433 162.075C320.535 162.216 320.667 162.333 320.818 162.417C320.969 162.502 321.136 162.551 321.307 162.562C324.783 162.804 328.298 163.004 331.853 163.162C346.93 163.822 362.94 165.824 376.62 171.463C380.599 173.104 384.194 175.106 387.404 177.471C394.693 182.831 398.159 190.818 399.128 199.999C399.905 207.383 400.301 214.846 400.317 222.389C400.353 243.425 400.046 264.346 399.396 285.152C399.388 285.291 399.316 285.36 399.182 285.36C377.224 285.522 353.741 285.562 328.732 285.479C322.169 285.459 314.585 285.372 305.98 285.217C303.567 285.174 301.056 285.168 298.448 285.2ZM203.956 13.7185C203.267 12.4528 202.666 10.8959 201.59 9.93328C197.447 6.21338 190.758 7.46127 186.014 9.67182C184.593 10.3314 183.19 10.9791 181.888 11.8705C175.785 16.0301 171.367 21.4277 168.637 28.0633C167.277 31.3712 166.574 35.1248 166.526 39.324C166.496 41.5643 162.656 41.7604 161.907 39.5023C161.378 37.8979 160.29 36.6322 158.827 35.7349C153.726 32.6033 142.978 29.3825 137.674 33.7382C137.63 33.7748 137.596 33.8225 137.576 33.8763C137.556 33.9302 137.551 33.9884 137.56 34.045C137.57 34.1017 137.594 34.1548 137.631 34.199C137.668 34.2432 137.716 34.2769 137.77 34.2968C138.848 34.7088 139.906 34.9861 140.944 35.1287C145.09 35.7071 149.331 36.3311 153.667 37.0006C155.185 37.2343 156.709 37.6859 158.239 38.3554C159.927 39.0923 160.395 40.3302 159.642 42.0694C159.549 42.2825 159.409 42.4719 159.233 42.6232C159.057 42.7744 158.849 42.8838 158.625 42.9429C152.763 44.5117 147.646 47.4452 143.275 51.7435C140.362 54.6116 138.406 57.2956 137.407 59.7953C136.057 63.1587 134.072 64.7037 130.499 65.6901C123.848 67.5322 117.818 66.6191 112.408 62.9507C112.047 62.7051 111.839 62.8002 111.784 63.2359C110.797 71.3769 118.097 72.9279 124.346 72.7437C125.103 72.7199 125.763 72.8645 126.325 73.1774C128.481 74.3817 128.878 76.0001 127.514 78.0323C126.087 80.1636 124.813 82.2712 123.692 84.355C121.004 89.3544 119.477 94.7996 119.108 100.69C118.674 107.625 120.713 113.651 126.848 117.549C126.879 117.568 126.914 117.578 126.95 117.576C126.986 117.574 127.02 117.561 127.048 117.539C127.076 117.517 127.097 117.486 127.107 117.452C127.117 117.417 127.116 117.381 127.104 117.347C124.837 110.735 124.566 103.699 126.29 96.2396C127.233 92.1671 128.515 88.3046 130.136 84.6521C132.486 79.3476 135.263 74.3065 138.465 69.5289C141.184 65.4722 143.719 61.9742 146.069 59.0347C148.035 56.5825 150.377 54.1065 153.096 51.6068C155.106 49.7587 157.424 48.3979 159.707 46.9956C161.447 45.9259 163.484 45.3178 165.819 45.1713C169.986 44.9098 171.27 39.9004 173.494 37.1907C178.206 31.4584 183.62 27.2215 189.736 24.4801C200.128 19.8292 211.826 18.0861 224.83 19.2508C227.077 19.4529 229.697 19.9619 232.689 20.778C238.341 22.323 242.988 25.1258 246.63 29.1864C247.171 29.7925 247.992 30.2441 248.753 30.3452C256.82 31.4148 265.69 33.5065 271.374 39.6746C273.835 42.3427 275.512 44.8682 276.909 48.1543C277.212 48.8615 277.741 49.5092 278.371 49.9489C282.188 52.5912 286.435 53.9104 291.112 53.9065C293.165 53.9065 295.263 53.7698 297.407 53.4965C298.208 53.3935 298.973 53.1657 299.702 52.8131C300.049 52.6447 300.346 52.3899 300.565 52.0733C300.783 51.7568 300.916 51.3893 300.951 51.0066C301.046 49.8934 301.004 48.7842 300.826 47.6789C300.719 47.0015 300.344 46.7856 299.702 47.0312C294.774 48.909 290.511 50.0142 285.101 49.0694C284.287 48.9268 283.734 48.4871 283.448 47.7146C279.875 38.0524 271.826 28.5328 261.446 26.756C258.005 26.1657 254.379 26.0211 250.566 26.3222C248.669 26.4767 248.533 23.7551 249.056 22.5845C249.078 22.5385 249.086 22.487 249.079 22.4364C249.073 22.3857 249.051 22.3382 249.018 22.2997C248.984 22.2611 248.94 22.2332 248.891 22.2194C248.842 22.2056 248.789 22.2065 248.741 22.222C247.377 22.6419 246.284 22.1864 245.459 20.8553C244.005 18.4902 241.965 16.6521 239.342 15.3408C236.742 14.0454 234.316 13.1283 232.065 12.5895C226.017 11.1435 219.86 11.0484 213.593 12.3043C212.436 12.534 211.318 12.8866 210.24 13.362C208.73 14.0275 205.116 15.8578 203.956 13.7185ZM263.239 44.4424C263.371 43.9217 263.292 43.3695 263.017 42.9074C262.743 42.4453 262.296 42.1112 261.775 41.9784L255.542 40.3902C255.284 40.3245 255.015 40.3102 254.752 40.3482C254.488 40.3861 254.235 40.4756 254.006 40.6115C253.777 40.7473 253.577 40.9269 253.418 41.14C253.258 41.3531 253.142 41.5954 253.076 41.8533L253.029 42.0376C252.897 42.5583 252.976 43.1105 253.251 43.5726C253.525 44.0347 253.972 44.3689 254.493 44.5016L260.727 46.0898C260.984 46.1555 261.253 46.1698 261.516 46.1318C261.78 46.0939 262.033 46.0044 262.262 45.8686C262.491 45.7327 262.691 45.5531 262.851 45.34C263.01 45.127 263.126 44.8846 263.192 44.6267L263.239 44.4424ZM245.132 53.4965C242.786 52.0426 240.325 50.8997 237.748 50.0677C235.62 49.3844 234.306 51.7138 236.203 53.2588C238.426 55.0692 240.788 56.3706 243.289 57.1629C245.828 57.9651 247.742 55.1187 245.132 53.4965ZM168.72 55.5941C165.991 62.612 165.599 70.7233 166.829 78.0383C167.515 82.0988 168.845 85.6702 170.818 88.7523C173.751 93.3239 177.82 96.8299 183.024 99.2702C183.369 99.4287 183.414 99.3692 183.16 99.0919C181.698 97.4954 180.281 95.8692 178.91 94.2133C172.364 86.2981 170.301 74.9661 171.264 64.674C171.556 61.5245 172.471 58.4821 173.119 55.3267C173.405 53.9164 172.867 53.1479 171.508 53.0211C169.933 52.8725 169.201 54.3522 168.72 55.5941ZM220.9 58.4761C219.408 57.4125 217.137 54.2927 215.103 55.5941C213.564 56.5805 214.598 58.5296 215.555 59.4744C219.281 63.1587 223.641 66.1081 228.635 68.3226C229.598 68.7465 230.44 68.5781 231.161 67.8175C231.308 67.659 231.413 67.4768 231.476 67.2708C231.877 65.8803 231.435 64.8522 230.151 64.1867C227.166 62.6457 224.083 60.7421 220.9 58.4761ZM259.84 95.2235C259.301 97.4617 258.459 99.5059 257.314 101.356C256.925 101.978 256.999 102.039 257.534 101.54C260.581 98.6918 262.835 95.2373 264.293 91.1767C265.47 87.9025 265.667 84.3906 265.607 80.9797C265.571 79.0247 264.733 60.4014 259.597 64.1332C259.081 64.5056 258.861 65.0345 258.937 65.7198C259.252 68.5305 260.155 71.1095 260.583 73.8727C261.729 81.3164 261.481 88.4334 259.84 95.2235ZM249.68 108.029C248.681 105.866 250.287 103.662 251.47 101.891C252.092 100.964 251.892 100.72 250.869 101.16C250.251 101.425 249.605 101.606 248.931 101.701C243.307 102.481 237.931 102.144 232.802 100.69C232.588 100.631 232.439 100.706 232.356 100.916C231.155 103.965 226.673 104.826 223.742 105.266C210.651 107.215 197.221 102.556 187.988 93.2209C187.576 92.801 187.502 92.8545 187.768 93.3813C189.333 96.4515 191.416 99.0305 194.016 101.118C194.769 101.724 195.38 102.378 195.847 103.079C196.485 104.042 196.256 105.108 195.158 106.276C193.992 107.524 190.633 107.067 189.094 106.787C184.25 105.916 179.738 104.022 175.557 101.106C168.403 96.1148 164.033 89.5684 162.448 81.467C162.329 80.8648 162.143 80.843 161.889 81.4016C157.783 90.4656 155.218 99.8783 154.196 109.64C154.172 109.881 154.212 110.109 154.315 110.323C155.865 113.544 157.491 116.798 159.196 120.086C160.486 122.576 161.687 125.244 162.275 127.942C162.84 130.521 162.84 133.278 163.791 135.756C167.115 144.444 176.068 148.841 184.504 151.361C187.112 152.141 189.763 152.727 192.459 153.12C202.474 154.585 212.381 154.522 222.178 152.929C232.737 151.218 242.825 147.284 251.458 140.605C254.914 137.935 257.676 134.879 259.745 131.436C261.011 129.326 262.367 128.59 264.816 129.053C267.955 129.653 271.564 128.726 274.531 127.865C277.987 126.858 281.07 125.048 283.781 122.433C291.944 114.554 291.516 99.8347 281.112 94.0588C280.244 93.5755 279.33 93.3378 278.371 93.3457C276.368 93.3695 273.912 92.6742 272.254 94.1717C271.568 94.7936 270.807 95.1759 269.971 95.3186C269.713 95.3661 269.481 95.3067 269.275 95.1403L268.693 94.6649C268.475 94.4906 268.31 94.5322 268.199 94.7897C265.589 100.732 261.618 105.789 255.821 108.82C254.091 109.723 250.697 110.222 249.68 108.029ZM157.234 131.614C157.063 128.734 156.193 126.009 154.624 123.438C154.589 123.38 154.541 123.331 154.483 123.296C154.426 123.26 154.36 123.239 154.292 123.234C154.224 123.229 154.156 123.24 154.093 123.266C154.03 123.292 153.973 123.332 153.928 123.384C152.914 124.592 152.188 126.129 151.752 127.995C151.011 131.157 151.4 134.268 152.918 137.331C154.602 140.742 157.303 142.986 161.021 144.063C161.54 144.214 161.645 144.067 161.336 143.624C158.871 140.122 157.503 136.119 157.234 131.614ZM333.881 271.687C333.873 272.178 333.954 272.661 334.124 273.137C334.167 273.257 334.181 273.385 334.165 273.512C334.15 273.639 334.105 273.76 334.035 273.868C333.112 275.262 331.954 276.171 330.563 276.595C329.14 277.023 327.729 277.508 326.33 278.051C326.247 278.083 326.202 278.14 326.194 278.223C326.186 278.334 326.322 278.402 326.604 278.425C326.691 278.429 326.778 278.429 326.865 278.425C328.32 278.33 329.745 278.334 331.14 278.437C332.168 278.509 333.072 278.176 334.124 278.283C334.885 278.358 335.674 278.388 336.491 278.372C340.466 278.301 344.338 278.308 348.107 278.396C348.138 278.397 348.169 278.391 348.197 278.379C348.225 278.367 348.251 278.35 348.272 278.327C348.292 278.305 348.308 278.278 348.318 278.249C348.327 278.219 348.331 278.188 348.327 278.158C346.873 266.396 345.036 255.125 342.816 244.346C342.523 242.924 342.255 241.563 342.013 240.264C339.338 226.097 335.177 210.005 329.755 195.292C325.114 182.706 319.22 171.202 312.074 160.779C308.864 156.097 305.344 151.796 301.515 147.878C299.641 145.957 297.364 143.899 294.685 141.704C290.032 137.889 285.103 134.908 279.899 132.761C279.514 132.605 279.085 132.605 278.704 132.761C274.229 134.591 269.578 135.394 264.751 135.168C264.631 135.162 264.511 135.19 264.406 135.249C264.3 135.308 264.211 135.395 264.151 135.501L262.831 137.788C262.758 137.914 262.719 138.057 262.717 138.204C262.714 138.35 262.75 138.496 262.819 138.626C263.298 139.541 263.564 140.472 263.615 141.419C263.837 145.48 262.775 149.534 260.429 153.583C257.282 159.006 253.574 163.326 249.306 166.543C244.704 170.01 239.581 172.761 233.938 174.797C227.237 177.21 218.088 177.739 212.018 173.763C207.88 171.053 204.402 165.866 206.156 160.886C206.174 160.837 206.18 160.785 206.173 160.733C206.166 160.681 206.147 160.632 206.116 160.589C206.086 160.546 206.046 160.51 205.999 160.485C205.952 160.461 205.9 160.447 205.847 160.446C203.398 160.399 200.576 160.294 197.381 160.131C196.6 160.092 195.933 160.266 195.378 160.654C192.762 162.485 189.966 165.083 186.989 168.451C178.488 178.071 170.902 188.167 164.653 199.428C164.586 199.547 164.546 199.679 164.536 199.815C164.526 199.95 164.546 200.086 164.594 200.212C167.329 207.486 170.2 214.676 172.774 221.979C174.831 227.832 177.209 234.012 179.011 239.604C181.563 247.539 184.248 255.914 187.066 264.728C187.083 264.778 187.112 264.822 187.15 264.857C187.189 264.892 187.235 264.917 187.285 264.929C187.336 264.941 187.388 264.94 187.437 264.925C187.486 264.911 187.53 264.884 187.566 264.847C189.9 262.474 192.425 260.06 195.14 257.603C197.363 255.595 199.664 254.858 202.458 253.913C207.484 252.218 212.137 250.883 216.417 249.908C216.631 249.861 216.711 249.73 216.655 249.516C215.74 245.832 217.024 243.377 219.782 241.244C220.805 240.452 221.736 239.85 222.576 239.438C231.55 235.044 240.196 230.663 248.515 226.293C250.174 225.42 252.231 224.76 252.986 222.811C255.681 215.867 258.213 210.277 260.583 206.042C267.7 193.319 278.009 182.873 289.982 174.25C292.087 172.729 296.117 169.871 298.62 170.263C301.153 170.655 301.581 173.722 299.316 174.999C297.306 176.132 295.277 177.352 293.228 178.66C291.95 179.474 290.903 180.52 289.625 181.328C288.662 181.942 287.747 182.625 286.879 183.378C282.915 186.82 279.78 189.734 277.473 192.119C269.606 200.264 263.427 209.863 258.937 220.916C258.849 221.129 258.909 221.183 259.115 221.076C261.58 219.777 264.099 218.614 266.671 217.588C269.81 216.34 273.199 215.734 276.837 215.769C281.364 215.809 285.747 215.861 289.988 215.924C292.398 215.96 295.124 216.207 298.168 216.667C300.041 216.946 302.324 218.325 301.462 220.517C301.109 221.405 300.606 222.086 299.952 222.562C299.767 222.693 299.544 222.762 299.316 222.758C297.655 222.71 295.919 222.579 294.108 222.365C287.862 221.625 280.268 221.575 271.326 222.217C270.324 222.288 269.394 222.526 268.538 222.93C262.363 225.85 257.149 228.486 252.896 230.839C249.884 232.507 246.939 234.01 244.062 235.349C243.388 235.666 242.728 236.035 242.082 236.455C240.543 237.447 238.717 237.928 237.071 238.76C232.873 240.868 228.609 242.94 224.277 244.976C223.698 245.245 223.191 245.598 222.755 246.034C222.619 246.169 222.528 246.341 222.491 246.528C222.454 246.716 222.475 246.91 222.55 247.086C222.625 247.262 222.75 247.411 222.911 247.515C223.071 247.619 223.259 247.672 223.45 247.668C225.476 247.624 227.331 248.397 229.015 249.985C234.29 254.973 238.349 260.947 241.191 267.907C242.193 270.371 242.798 272.982 243.004 275.739C243.024 275.993 243.16 276.126 243.414 276.138C260.778 276.922 278.151 277.685 295.535 278.425C298 278.532 300.697 278.344 303.626 277.861C312.633 276.375 320.867 273.666 329.594 269.993C330.339 269.68 331.017 269.561 331.627 269.637C332.68 269.767 333.898 270.475 333.881 271.687ZM225.793 158.42C221.156 159.335 216.209 160.149 211.406 160.375C211.306 160.38 211.21 160.419 211.135 160.484C211.059 160.55 211.008 160.639 210.989 160.738C210.003 165.741 213.926 169.473 218.516 170.358C223.617 171.345 228.882 170.735 234.312 168.528C236.349 167.696 238.234 166.815 239.966 165.884C242.82 164.343 245.525 162.437 248.081 160.167C252.571 156.174 255.817 151.323 257.819 145.614C258.1 144.806 258.257 143.984 258.289 143.148C258.291 143.099 258.278 143.051 258.253 143.009C258.227 142.967 258.19 142.933 258.146 142.912C258.101 142.891 258.052 142.884 258.003 142.891C257.954 142.898 257.909 142.919 257.873 142.952C254.424 146.153 250.701 148.803 246.702 150.903C239.829 154.516 232.859 157.022 225.793 158.42ZM23.4811 175.896C24.6067 175.623 25.7759 175.463 26.9887 175.415C34.852 175.114 42.5391 175.037 50.0497 175.183C61.1393 175.397 72.8214 175.702 85.096 176.098C97.66 176.507 115.995 177.414 140.1 178.82C142.597 178.967 143.804 180.3 143.721 182.819C143.717 183.017 143.782 183.192 143.917 183.342C144.363 183.824 144.684 184.174 144.969 184.786C148.334 191.961 151.709 199.979 155.094 208.841C161.954 226.81 167.953 244.364 173.089 261.502C175.444 269.365 177.691 276.69 179.831 283.476C180.881 286.816 182.053 290.039 183.345 293.144C183.511 293.537 183.806 293.753 184.231 293.792C185.832 293.939 187.251 293.903 188.487 293.685C188.935 293.606 189.084 293.352 188.933 292.925C184.26 279.618 179.803 266.149 175.563 252.517C175.194 251.336 174.819 250.189 174.439 249.076C174.007 247.808 173.581 246.521 173.161 245.214C172.745 243.914 172.317 242.621 171.877 241.333C164.715 220.345 157.059 200.018 148.911 180.353C148.298 178.88 146.354 174.072 144.541 173.787C141.545 173.319 138.091 173.07 134.179 173.038C127.092 172.979 117.425 172.67 105.179 172.111C93.0625 171.559 81.2971 170.762 69.3713 170.394C52.1582 169.867 34.9293 169.641 17.6846 169.716C16.995 169.72 16.7076 170.061 16.8225 170.739C17.1 172.371 17.526 174.142 18.1007 176.051C19.4087 180.405 20.7245 184.574 22.0483 188.56C24.7236 196.617 27.4147 204.677 30.1217 212.739C30.639 214.266 31.2572 215.591 31.7566 217.053C36.5959 231.16 42.4023 247.147 49.1758 265.014C49.7049 266.41 50.3945 267.699 50.9117 269.078C53.3889 275.662 56.0324 282.302 58.8425 288.997C59.0486 289.484 59.4152 289.742 59.9423 289.769C67.1042 290.173 74.276 290.605 81.4576 291.065C85.4052 291.318 89.7966 291.506 94.632 291.629C115.535 292.148 136.438 292.435 157.341 292.491C163.684 292.509 170.028 292.36 176.377 292.562C176.433 292.564 176.488 292.552 176.538 292.527C176.587 292.502 176.63 292.466 176.663 292.42C176.695 292.375 176.716 292.323 176.723 292.268C176.73 292.213 176.724 292.157 176.704 292.105C175.816 289.747 175.049 287.511 174.403 285.396C171.791 276.874 168.966 267.596 165.926 257.562C159.434 236.142 151.647 213.842 142.567 190.663C141.822 188.762 141.4 186.84 141.301 184.899C141.285 184.626 141.144 184.517 140.879 184.572C140.13 184.721 139.446 184.733 138.685 184.697C122.998 183.881 108.458 183.103 95.066 182.362C91.7843 182.179 88.025 182.017 83.7881 181.874C79.9436 181.748 76.1744 181.597 72.4805 181.423C56.9837 180.694 41.3679 180.272 25.6332 180.157C24.785 180.149 23.9349 179.973 23.0827 179.628C21.3824 178.945 21.6856 176.33 23.4811 175.896ZM367.744 221.112C365.937 222.502 364.236 223.922 363.006 225.812C361.692 227.832 363.695 230.067 365.871 228.474C367.472 227.298 369.08 225.887 370.693 224.243C372.809 222.086 369.819 219.507 367.744 221.112ZM375.38 235.449C375.354 235.157 375.234 234.877 375.028 234.624C374.822 234.372 374.534 234.151 374.18 233.976C373.825 233.8 373.412 233.673 372.964 233.601C372.516 233.53 372.041 233.515 371.567 233.558C371.092 233.601 370.628 233.701 370.2 233.853C369.772 234.004 369.389 234.204 369.072 234.44C368.755 234.677 368.512 234.946 368.355 235.232C368.198 235.517 368.131 235.814 368.157 236.106C368.184 236.397 368.303 236.677 368.509 236.93C368.715 237.183 369.004 237.403 369.358 237.579C369.712 237.754 370.125 237.882 370.573 237.953C371.022 238.025 371.496 238.04 371.971 237.996C372.445 237.953 372.909 237.853 373.338 237.702C373.766 237.55 374.149 237.351 374.465 237.114C374.782 236.878 375.026 236.609 375.183 236.323C375.34 236.037 375.407 235.74 375.38 235.449ZM225.852 271.372C227.113 271.538 227.154 272.857 228.415 273.012C231.217 273.345 233.882 273.555 236.411 273.642C236.484 273.644 236.557 273.629 236.625 273.6C236.692 273.57 236.752 273.526 236.8 273.471C236.847 273.416 236.882 273.351 236.901 273.28C236.92 273.21 236.923 273.137 236.91 273.065C236.728 272.02 236.429 271.001 236.012 270.011C233.258 263.486 229.617 258.045 225.091 253.687C224.94 253.539 224.746 253.441 224.537 253.407C224.327 253.373 224.112 253.405 223.92 253.497C222.713 254.068 221.376 253.991 220.097 254.294C213.922 255.743 207.593 257.675 201.109 260.087C200.09 260.468 199.198 261.016 198.433 261.733C195.584 264.415 192.778 267.089 190.015 269.756C188.989 270.742 189.102 271.576 190.354 272.257C190.715 272.455 191.127 272.538 191.591 272.507C193.013 272.416 194.183 271.827 195.098 270.742C196.707 268.836 198.562 267.135 200.663 265.637C201.757 264.857 202.817 264.984 203.843 266.018C204.604 266.784 204.307 267.848 203.701 268.585C202.432 270.11 201.01 271.578 199.432 272.988C198.83 273.527 198.925 273.883 199.718 274.058L200.247 274.171C200.608 274.25 200.982 274.241 201.34 274.146C201.698 274.051 202.028 273.872 202.304 273.624C203.873 272.218 205.498 270.708 207.179 269.096C208.51 267.824 210.894 265.905 212.577 267.414C214.503 269.137 210.728 272.501 209.616 273.612C209.482 273.743 209.403 273.92 209.393 274.107C209.383 274.294 209.444 274.478 209.563 274.622C210.47 275.735 211.562 275.87 212.838 275.026C214.245 274.095 215.662 273.254 217.089 272.501C220.056 270.944 222.588 270.938 225.852 271.372ZM265.102 288.836C265.304 288.535 265.452 288.212 265.548 287.868C265.632 287.55 265.821 287.269 266.086 287.072C266.35 286.874 266.674 286.772 267.004 286.78L276.671 287.012C276.782 287.016 276.849 286.962 276.873 286.852C276.897 286.741 276.861 286.675 276.766 286.655C274.582 286.156 272.595 285.792 270.803 285.562C267.367 285.118 265.631 284.895 265.595 284.891C259.63 283.956 253.43 282.914 246.993 281.765C242.253 280.921 233.823 279.937 221.703 278.812C220.985 278.744 220.331 278.55 219.741 278.229C219.572 278.139 219.385 278.089 219.193 278.082C219.001 278.076 218.81 278.114 218.635 278.194C216.721 279.081 214.929 279.836 213.26 280.458C211.62 281.076 207.143 280.38 206.114 278.503C206.069 278.42 206.008 278.347 205.934 278.288C205.86 278.23 205.774 278.187 205.683 278.162C205.592 278.138 205.497 278.132 205.403 278.146C205.31 278.159 205.22 278.192 205.139 278.241C203.82 279.043 202.512 279.745 200.901 279.644C199.311 279.537 197.736 279.22 196.174 278.693C195.94 278.614 195.744 278.477 195.586 278.283L195.104 277.688C194.934 277.482 194.718 277.395 194.456 277.427L191.929 277.736C191.875 277.742 191.822 277.762 191.776 277.792C191.73 277.823 191.691 277.863 191.664 277.912C191.637 277.96 191.622 278.013 191.619 278.069C191.617 278.124 191.627 278.179 191.65 278.229L192.405 279.887C192.508 280.121 192.688 280.24 192.946 280.244C196.668 280.303 200.155 280.499 203.409 280.832C210.377 281.545 217.018 282.104 223.789 282.371C230.584 282.638 237.041 283.084 243.884 283.946C248.961 284.582 254.074 284.694 259.365 285.657C260.964 285.948 264.602 286.923 263.675 289.205C262.765 291.457 257.284 290.667 255.631 290.167C254.755 289.902 253.772 289.789 252.682 289.829C249.658 289.94 246.535 289.801 243.313 289.413C241.228 289.163 239.185 288.951 237.184 288.777C227.144 287.882 216.861 286.917 206.334 285.883C202.417 285.503 198.427 285.556 194.617 284.754C194.557 284.741 194.494 284.744 194.436 284.763C194.378 284.782 194.326 284.817 194.285 284.864C194.245 284.91 194.217 284.967 194.205 285.028C194.194 285.089 194.198 285.153 194.218 285.211L196.549 291.932C196.582 292.028 196.644 292.111 196.726 292.169C196.808 292.228 196.906 292.259 197.007 292.259C199.664 292.247 202.321 292.443 204.985 292.479C233.28 292.895 261.786 293.109 290.505 293.121C291.627 293.121 292.812 293.085 294.06 293.014C295.931 292.907 295.987 292.53 294.227 291.885C293.115 291.481 291.795 291.148 290.588 291.106C285.898 290.934 281.706 290.601 276.742 291.023C273.514 291.296 268.615 291.403 265.435 290.001C264.86 289.744 264.749 289.355 265.102 288.836Z" fill="black"/>
<path d="M80.9467 82.7987C80.8804 83.5032 81.085 84.1006 80.6482 84.7432C79.6419 86.2161 78.2246 86.9788 76.3963 87.0314C71.8809 87.1629 67.5129 85.7821 63.2923 82.8889C60.29 80.8317 57.6637 77.1513 58.8525 73.3695C59.4533 71.4532 60.76 70.309 62.7726 69.9371C68.7385 68.8324 74.7818 73.082 78.525 77.5458C79.6972 78.9436 81.1126 81.0459 80.9467 82.7987ZM63.7181 76.2101C65.9684 79.7665 71.3925 81.7504 75.2075 81.9364C75.2394 81.9372 75.2708 81.9289 75.2983 81.9125C75.3258 81.8962 75.3483 81.8723 75.3632 81.8436C75.3781 81.8149 75.3849 81.7826 75.3828 81.7502C75.3807 81.7178 75.3698 81.6866 75.3513 81.6602C72.9627 78.3856 69.214 75.5957 65.1943 74.9532C64.7704 74.8856 64.3871 74.9307 64.0443 75.0885C63.9445 75.1343 63.8555 75.2014 63.7834 75.2854C63.7114 75.3693 63.6581 75.4679 63.6271 75.5745C63.596 75.6811 63.5881 75.7931 63.6038 75.9029C63.6195 76.0126 63.6585 76.1174 63.7181 76.2101Z" fill="black"/>
<path d="M63.0769 101.377C66.3953 100.936 70.8508 100.815 73.4557 103.108C76.0489 105.402 75.5036 108.775 73.4382 111.228C71.2995 113.758 68.5283 115.83 65.1248 117.444C61.6149 119.112 55.6569 120.077 52.3791 117.221C49.1941 114.454 49.9541 110.2 52.1354 107.088C54.5952 103.568 59.2015 101.888 63.0769 101.377ZM55.8193 112.608C59.3176 114.914 66.3025 110.838 69.0698 108.027C69.1423 107.955 69.1883 107.856 69.1989 107.749C69.2096 107.642 69.1843 107.534 69.1278 107.446C69.0195 107.276 68.8725 107.18 68.6869 107.159C64.7187 106.705 57.8846 107.478 55.5814 111.528C55.5314 111.616 55.4979 111.713 55.4827 111.815C55.4676 111.917 55.4713 112.021 55.4934 112.122C55.5156 112.222 55.5558 112.317 55.6118 112.401C55.6678 112.484 55.7383 112.555 55.8193 112.608Z" fill="black"/>
<path d="M209.336 118.945C210.155 122.606 212.823 125.126 215.296 124.574C217.769 124.021 219.11 120.605 218.291 116.944C217.473 113.282 214.805 110.762 212.332 111.315C209.859 111.868 208.518 115.284 209.336 118.945Z" fill="black"/>
<path d="M174.132 126.465C173.271 123.755 172.66 120.59 173.574 117.829C174.504 115.025 177.108 114.309 178.91 116.437C179.817 117.504 180.441 118.754 180.781 120.184C181.349 122.578 182.04 125.61 180.51 127.649C179.234 129.341 177.727 129.717 175.987 128.775C175.08 128.282 174.462 127.511 174.132 126.465Z" fill="black"/>
<path d="M75.6701 132.134C78.0097 130.101 82.0156 128.08 84.804 130.146C86.1319 131.131 86.7696 132.651 86.7172 134.706C86.605 138.834 84.2598 143.073 80.8823 145.662C78.2453 147.689 74.0318 147.942 71.9222 145.022C68.8028 140.709 72.3655 135.004 75.6701 132.134ZM81.0169 134.717C79.042 135.605 75.6252 138.665 75.7655 141.069C75.7738 141.216 75.8153 141.359 75.8867 141.488C75.9582 141.616 76.0578 141.727 76.1781 141.812C76.2984 141.897 76.4364 141.953 76.5816 141.977C76.7268 142.001 76.8755 141.992 77.0166 141.95C79.4516 141.226 81.2413 137.177 81.5275 135.105C81.5357 135.04 81.5266 134.973 81.5013 134.913C81.4759 134.852 81.4352 134.799 81.3832 134.76C81.3312 134.72 81.2699 134.696 81.2055 134.688C81.1412 134.681 81.0761 134.691 81.0169 134.717Z" fill="black"/>
<path d="M198.653 132.551L193.248 132.957C192.174 133.038 191.37 133.974 191.45 135.047L191.465 135.237C191.545 136.31 192.481 137.115 193.555 137.035L198.959 136.628C200.033 136.547 200.838 135.612 200.757 134.538L200.743 134.349C200.662 133.275 199.726 132.47 198.653 132.551Z" fill="black"/>
<path d="M237.214 244.479C237.295 244.163 237.457 243.89 237.701 243.659C237.965 243.404 238.271 243.259 238.62 243.222C239.841 243.089 240.971 243.558 242.01 244.631C243.73 246.404 245.167 248.116 246.319 249.768C250.551 255.86 253.617 262.36 255.516 269.27C256.003 271.055 255.408 272.363 253.732 273.192C253.696 273.213 253.655 273.225 253.611 273.229C251.708 273.496 250.505 272.719 250.001 270.897C248.277 264.684 245.782 259.007 242.515 253.866C241.054 251.571 239.452 249.241 237.707 246.877C237.159 246.137 236.995 245.337 237.214 244.479Z" fill="black"/>
<path d="M266.546 253.368C266.053 252.136 265.514 250.334 266.372 249.166C268.947 245.667 272.677 254.065 273.26 255.437C274.735 258.912 271.067 261.603 268.851 258.424C267.763 256.872 267.247 255.123 266.546 253.368Z" fill="black"/>
<path d="M258.002 249.348C259.698 251.971 260.67 255.029 261.844 258.054C262.24 259.073 262.138 260.029 261.537 260.919C260.527 262.421 258.605 261.728 257.954 260.276C256.675 257.422 256.014 253.99 255.171 250.871C254.466 248.27 256.785 247.473 258.002 249.348Z" fill="black"/>
<path d="M371.325 308.85C372.02 310.522 370.749 312.391 369.235 312.801C368.222 313.071 367.123 313.247 365.94 313.328C359.923 313.733 353.446 314.043 346.511 314.26C336.156 314.59 325.634 315.228 315.445 315.516C288.578 316.271 261.365 316.676 233.806 316.729C219.338 316.753 193.358 317.141 155.867 317.893C152.047 317.97 148.088 318.032 143.991 318.077C114.108 318.428 84.2233 318.989 54.3364 319.761C40.6261 320.117 26.9454 319.982 13.0688 319.939C9.71397 319.933 9.77335 315.044 12.9501 314.37C14.482 314.043 15.6597 313.878 16.483 313.874C36.1886 313.706 57.8615 313.294 81.5018 312.636C94.2087 312.285 124.092 311.746 171.151 311.019C174.816 310.961 178.773 310.88 183.02 310.773C205.243 310.218 227.318 309.908 249.244 309.842C260.217 309.812 271.018 309.597 281.914 309.45C293.635 309.297 305.344 308.819 317.054 308.562C322.592 308.439 331.112 308.027 342.616 307.324C350.626 306.84 359.242 306.865 367.549 306.564C369.405 306.495 370.664 307.257 371.325 308.85Z" fill="black"/>
</g>
<defs>
<clipPath id="clip0_49_492">
<rect width="400" height="320" fill="white"/>
</clipPath>
</defs>
</svg>
